<svg xmlns="http://www.w3.org/2000/svg" xmlns:xlink="http://www.w3.org/1999/xlink" width="500" zoomAndPan="magnify" viewBox="0 0 375 374.999991" height="500" preserveAspectRatio="xMidYMid meet" version="1.0"><defs><g/><clipPath id="48efdaacfa"><path d="M 73 45.050781 L 284.757812 45.050781 L 284.757812 244.550781 L 73 244.550781 Z M 73 45.050781 " clip-rule="nonzero"/></clipPath><clipPath id="25a4583dec"><path d="M 217.53125 211.460938 L 304.53125 211.460938 L 304.53125 298.460938 L 217.53125 298.460938 Z M 217.53125 211.460938 " clip-rule="nonzero"/></clipPath></defs><g clip-path="url(#48efdaacfa)"><path fill="#000000" d="M 125.855469 241.59375 L 125.855469 238.710938 L 106.667969 238.515625 L 106.667969 240.007812 C 106.667969 241.894531 106.003906 241.976562 105.851562 240.105469 L 105.734375 238.710938 L 96.046875 238.527344 C 90.71875 238.425781 86.550781 238.214844 86.785156 238.0625 C 87.019531 237.910156 88.78125 237.804688 90.699219 237.828125 C 92.613281 237.851562 101.351562 237.851562 110.113281 237.824219 L 126.042969 237.78125 L 126.042969 221.421875 L 110.246094 221.421875 C 96.183594 221.421875 94.425781 221.484375 94.222656 222.007812 C 94.097656 222.332031 93.996094 226.042969 93.996094 230.25 C 93.996094 234.460938 93.933594 237.835938 93.855469 237.753906 C 93.777344 237.667969 93.617188 234 93.496094 229.601562 C 93.378906 225.203125 93.273438 221.5625 93.265625 221.511719 C 93.207031 221.128906 85.460938 221.492188 85.300781 221.886719 C 85.148438 222.257812 85.105469 222.257812 85.082031 221.886719 C 85.0625 221.535156 83.746094 221.421875 79.835938 221.421875 C 76.609375 221.421875 74.621094 221.277344 74.621094 221.046875 C 74.621094 220.816406 76.617188 220.675781 79.863281 220.675781 L 85.109375 220.675781 L 85.015625 212.6875 C 84.9375 205.773438 84.84375 204.671875 84.335938 204.535156 C 84.015625 204.445312 81.679688 204.40625 79.152344 204.445312 C 73.601562 204.53125 74.214844 205.671875 74.058594 195.011719 C 73.933594 186.277344 74.050781 185.234375 75.101562 185.972656 C 75.347656 186.148438 79.617188 186.230469 84.585938 186.160156 L 93.625 186.03125 L 93.625 169.726562 L 83.75 169.726562 C 75.21875 169.726562 73.875 169.652344 73.875 169.171875 C 73.875 168.679688 77.199219 168.613281 101.542969 168.609375 C 131.207031 168.601562 130.886719 168.617188 130.886719 167.269531 L 130.886719 166.382812 L 102.566406 166.382812 C 83.933594 166.382812 74.246094 166.253906 74.246094 166.007812 C 74.246094 165.765625 83.4375 165.636719 101.074219 165.636719 L 127.90625 165.636719 L 127.90625 160.804688 L 126.695312 160.796875 C 126.027344 160.796875 113.871094 160.796875 99.679688 160.804688 C 76.886719 160.8125 73.875 160.746094 73.875 160.25 C 73.875 159.753906 76.710938 159.683594 97.816406 159.640625 C 132.078125 159.570312 128.945312 159.871094 131.300781 156.460938 C 133.445312 153.359375 136.050781 153.597656 103.164062 153.894531 C 75.429688 154.144531 72.523438 154.078125 73.558594 153.207031 C 73.730469 153.058594 110.945312 152.625 123.339844 152.621094 L 133.121094 152.621094 L 133.121094 148.5 L 103.496094 148.660156 L 73.875 148.816406 L 73.875 131.050781 L 79.046875 131.050781 C 83.671875 131.050781 84.234375 130.984375 84.355469 130.402344 C 84.433594 130.042969 84.441406 126.445312 84.378906 122.40625 L 84.261719 115.0625 L 79.441406 115.0625 C 76.472656 115.0625 74.617188 114.917969 74.617188 114.691406 C 74.617188 114.453125 77.972656 114.316406 83.933594 114.316406 L 93.25 114.316406 L 93.25 97.582031 L 83.65625 97.539062 C 78.378906 97.515625 74.5625 97.367188 75.179688 97.210938 C 75.792969 97.054688 82.964844 96.90625 91.113281 96.882812 L 105.933594 96.839844 L 105.832031 88.566406 L 105.734375 80.289062 L 89.898438 80.105469 C 79.820312 79.984375 75.957031 79.851562 79.277344 79.734375 L 84.492188 79.546875 L 84.355469 74.84375 C 84.21875 70.183594 84.433594 68.710938 85.097656 69.746094 C 85.273438 70.023438 85.3125 71.945312 85.183594 74.015625 C 85.054688 76.085938 85.058594 78.222656 85.195312 78.761719 L 85.441406 79.742188 L 98.570312 79.726562 C 105.789062 79.71875 112.742188 79.609375 114.023438 79.484375 L 116.355469 79.257812 L 116.355469 62.625 L 109.957031 62.625 C 106.4375 62.625 103.648438 62.539062 103.753906 62.433594 C 103.863281 62.324219 110.09375 62.238281 117.605469 62.238281 L 131.257812 62.242188 L 131.257812 45.890625 L 128.652344 45.890625 C 127.160156 45.890625 126.042969 45.734375 126.042969 45.519531 C 126.042969 45.308594 127.128906 45.148438 128.558594 45.148438 C 133.636719 45.144531 225.855469 45.144531 229.914062 45.144531 C 232.457031 45.148438 234.105469 45.292969 234.105469 45.519531 C 234.105469 45.746094 232.550781 45.890625 230.191406 45.890625 L 226.28125 45.890625 L 226.28125 61.8125 L 228.191406 61.941406 C 229.246094 62.011719 234.695312 62.0625 240.304688 62.054688 C 245.910156 62.046875 250.5 62.171875 250.5 62.332031 C 250.5 62.496094 248.90625 62.625 246.960938 62.625 L 243.421875 62.625 L 243.386719 64.578125 C 243.371094 65.652344 243.3125 68.039062 243.257812 69.878906 C 243.203125 71.71875 243.242188 74.601562 243.34375 76.285156 L 243.527344 79.34375 L 258.542969 79.351562 C 266.800781 79.355469 273.644531 79.222656 273.746094 79.058594 C 273.851562 78.890625 273.96875 76.464844 274.007812 73.664062 C 274.105469 66.976562 274.671875 67.113281 274.804688 73.851562 L 274.90625 79.128906 L 279.65625 79.152344 C 282.265625 79.164062 284.363281 79.3125 284.3125 79.484375 C 284.265625 79.652344 277.472656 79.773438 269.226562 79.75 L 254.226562 79.703125 L 254.226562 96.5 L 259.722656 96.464844 C 275.835938 96.367188 283.695312 96.488281 283.476562 96.839844 C 283.335938 97.070312 279.9375 97.210938 274.519531 97.210938 L 265.792969 97.210938 L 265.578125 98.058594 C 265.460938 98.527344 265.417969 102.164062 265.480469 106.148438 L 265.59375 113.386719 L 275.1875 113.488281 C 281.160156 113.550781 284.78125 113.726562 284.78125 113.953125 C 284.78125 114.171875 282.9375 114.316406 280.152344 114.316406 L 275.519531 114.316406 L 275.28125 116.269531 C 275.148438 117.34375 275.09375 120.984375 275.160156 124.359375 L 275.28125 130.496094 L 279.679688 130.601562 L 284.078125 130.703125 L 283.964844 139.570312 L 283.851562 148.433594 L 254.695312 148.25 L 225.535156 148.070312 L 225.535156 152.246094 L 254.503906 152.339844 C 279.902344 152.425781 283.480469 152.503906 283.578125 152.992188 C 283.671875 153.488281 280.394531 153.539062 255.542969 153.453125 C 232.988281 153.371094 227.398438 153.445312 227.402344 153.824219 C 227.40625 155.007812 228.257812 157.164062 229.132812 158.203125 L 230.09375 159.34375 L 256.226562 159.316406 C 270.601562 159.300781 282.753906 159.292969 283.230469 159.300781 C 283.710938 159.308594 284.039062 159.503906 283.960938 159.730469 C 283.824219 160.140625 278.109375 160.230469 243.140625 160.378906 L 230.75 160.429688 L 230.75 164.894531 L 257.394531 164.894531 C 275.171875 164.894531 284.039062 165.019531 284.039062 165.273438 C 284.039062 165.523438 276.65625 165.644531 261.960938 165.636719 C 249.816406 165.632812 237.230469 165.628906 233.988281 165.632812 L 228.09375 165.636719 L 228.210938 166.660156 C 228.277344 167.246094 228.566406 167.699219 228.886719 167.71875 C 229.195312 167.738281 241.742188 167.78125 256.769531 167.8125 C 281.605469 167.863281 284.082031 167.921875 283.972656 168.464844 C 283.863281 168.992188 282.800781 169.054688 274.441406 169.003906 L 265.035156 168.949219 L 265.035156 185.335938 L 274.441406 185.433594 L 283.851562 185.535156 L 283.851562 203.757812 L 279.699219 203.859375 C 274.683594 203.988281 275.136719 203.074219 275.21875 212.878906 L 275.28125 220.304688 L 279.101562 220.304688 C 281.398438 220.304688 282.917969 220.453125 282.917969 220.675781 C 282.917969 220.914062 279.691406 221.046875 273.976562 221.046875 L 265.035156 221.046875 L 265.035156 229.207031 C 265.035156 238.6875 264.507812 237.789062 269.992188 237.664062 C 272 237.617188 273.84375 237.707031 274.089844 237.863281 C 274.539062 238.144531 269.339844 238.253906 259.535156 238.15625 L 254.226562 238.105469 L 254.226562 240.363281 C 254.226562 241.617188 254.0625 242.617188 253.855469 242.617188 C 253.648438 242.617188 253.480469 241.625 253.480469 240.386719 L 253.480469 238.15625 L 232.988281 238.15625 L 232.988281 239.828125 C 232.988281 240.964844 232.828125 241.503906 232.496094 241.503906 C 232.09375 241.503906 231.992188 234.957031 231.925781 205.351562 C 231.867188 177.375 231.746094 169.132812 231.394531 168.902344 C 231.144531 168.734375 230.265625 168.617188 229.449219 168.640625 C 226.914062 168.710938 226.980469 168.765625 227.074219 166.753906 C 227.160156 164.878906 227.273438 164.757812 228.796875 164.878906 C 230.191406 164.992188 230.023438 160.960938 228.546875 158.929688 C 227.949219 158.105469 227.25 156.609375 226.992188 155.601562 C 226.636719 154.226562 226.328125 153.746094 225.75 153.664062 C 225.042969 153.5625 224.972656 153.285156 224.921875 150.484375 L 224.867188 147.417969 L 231.925781 147.417969 L 231.6875 144.347656 C 228.929688 109.207031 193.679688 86.898438 161.441406 99.886719 C 142.539062 107.5 130.121094 124.390625 128.0625 145.277344 L 127.816406 147.785156 L 129.445312 147.820312 C 130.339844 147.839844 131.773438 147.828125 132.628906 147.796875 C 136.523438 147.644531 135.71875 154.144531 131.253906 158.921875 C 128.867188 161.46875 128.503906 165.414062 130.644531 165.488281 C 133.710938 165.597656 132.585938 169.710938 129.488281 169.722656 L 127.902344 169.726562 L 127.886719 177.816406 C 127.875 182.265625 127.808594 188.082031 127.734375 190.738281 C 127.664062 193.398438 127.589844 206.578125 127.566406 220.023438 L 127.53125 244.476562 L 126.691406 244.476562 C 125.894531 244.476562 125.855469 244.335938 125.855469 241.59375 Z M 263.636719 237.527344 C 264.234375 237.375 264.289062 236.664062 264.289062 229.207031 L 264.289062 221.046875 L 232.621094 221.046875 L 232.628906 227.277344 C 232.644531 236.4375 232.785156 237.335938 234.238281 237.515625 C 235.878906 237.714844 262.839844 237.726562 263.636719 237.527344 Z M 116.722656 213.332031 C 116.71875 209.292969 116.613281 205.597656 116.484375 205.121094 L 116.253906 204.257812 L 101.121094 204.378906 C 91.605469 204.453125 85.882812 204.636719 85.710938 204.871094 C 85.5625 205.078125 85.4375 208.714844 85.433594 212.960938 L 85.425781 220.675781 L 116.726562 220.675781 Z M 126.042969 212.679688 L 126.042969 204.6875 L 124.273438 204.667969 C 123.300781 204.65625 121.539062 204.554688 120.359375 204.445312 C 118.71875 204.292969 118.21875 204.363281 118.210938 204.746094 C 118.207031 205.152344 118.148438 205.148438 117.878906 204.730469 C 117.222656 203.691406 117.125 206.390625 117.40625 217.980469 L 117.472656 220.675781 L 126.042969 220.675781 Z M 273.695312 220.316406 L 274.722656 220.304688 L 274.722656 203.941406 L 262.332031 203.925781 C 255.515625 203.914062 248.65625 203.875 247.082031 203.832031 L 244.222656 203.757812 L 244.046875 206.171875 C 243.949219 207.503906 243.84375 211.222656 243.8125 214.441406 L 243.757812 220.292969 L 252.8125 220.390625 C 257.792969 220.445312 264.296875 220.453125 267.269531 220.410156 C 270.242188 220.363281 273.132812 220.320312 273.695312 220.316406 Z M 243.335938 212.03125 L 243.234375 203.757812 L 237.925781 203.734375 L 232.613281 203.710938 L 232.613281 211.761719 C 232.613281 221.296875 231.957031 220.304688 238.273438 220.304688 L 243.433594 220.304688 Z M 105.921875 195.390625 L 105.921875 186.835938 L 74.992188 186.835938 L 74.992188 203.941406 L 105.921875 203.941406 Z M 125.957031 195.296875 L 126.054688 186.835938 L 106.695312 186.835938 L 106.589844 189.71875 C 106.527344 191.304688 106.53125 195.15625 106.589844 198.277344 L 106.703125 203.953125 L 116.28125 203.855469 L 125.855469 203.757812 Z M 253.480469 194.644531 L 253.480469 186.09375 L 232.613281 186.09375 L 232.613281 194.058594 C 232.613281 198.4375 232.714844 202.285156 232.839844 202.609375 C 233.039062 203.125 234.308594 203.199219 243.273438 203.199219 L 253.480469 203.199219 Z M 283.292969 194.636719 L 283.292969 186.089844 L 254.226562 186.089844 L 254.226562 203.199219 L 268.757812 203.1875 L 283.292969 203.179688 L 283.292969 194.632812 Z M 126.042969 177.910156 L 126.042969 169.730469 L 94.417969 169.730469 L 94.386719 177.910156 L 94.351562 186.089844 L 126.042969 186.089844 Z M 253.585938 185.496094 C 253.707031 185.371094 256.070312 185.296875 258.832031 185.328125 C 261.59375 185.359375 263.945312 185.230469 264.0625 185.042969 C 264.347656 184.585938 264.53125 169.476562 264.257812 169.203125 C 264.078125 169.023438 246.09375 168.875 235.316406 168.964844 L 232.617188 168.984375 L 232.617188 185.347656 L 237.832031 185.347656 C 241.753906 185.347656 243.050781 185.234375 243.054688 184.882812 C 243.058594 184.523438 243.125 184.519531 243.347656 184.871094 C 243.542969 185.175781 245.152344 185.363281 248.28125 185.441406 C 250.835938 185.507812 253.023438 185.59375 253.140625 185.640625 C 253.261719 185.683594 253.460938 185.617188 253.585938 185.496094 Z M 98.691406 147.789062 L 99.84375 147.789062 L 100.089844 143.234375 C 100.3125 139.125 100.710938 135.703125 101.300781 132.816406 L 101.507812 131.789062 L 74.804688 131.984375 L 74.703125 140.132812 L 74.605469 148.277344 L 86.070312 148.035156 C 92.375 147.902344 98.054688 147.792969 98.691406 147.789062 Z M 103.792969 143.417969 C 104.039062 138.535156 105.121094 132.09375 106.503906 127.335938 C 107.503906 123.886719 107.320312 123.242188 105.339844 123.242188 C 103.605469 123.242188 100.765625 137 100.714844 145.648438 L 100.703125 147.789062 L 103.574219 147.789062 Z M 117.472656 145.824219 C 117.472656 142.554688 118.171875 137.808594 119.367188 132.96875 C 119.992188 130.445312 120.449219 128.332031 120.382812 128.277344 C 120.195312 128.121094 108.742188 124.359375 108.449219 124.359375 C 107.375 124.359375 104.429688 139.808594 104.429688 145.441406 L 104.429688 147.789062 L 117.472656 147.789062 Z M 126.414062 145.738281 C 126.414062 143.058594 127.328125 137.117188 128.242188 133.847656 C 128.644531 132.417969 128.941406 131.230469 128.902344 131.203125 C 128.734375 131.082031 121.730469 128.820312 121.53125 128.820312 C 120.75 128.820312 118.710938 138.726562 118.335938 144.347656 L 118.105469 147.789062 L 126.414062 147.789062 Z M 240.808594 146.039062 C 240.808594 142.023438 239.429688 134.207031 237.785156 128.941406 C 237.363281 127.585938 237.386719 127.582031 233.359375 129.03125 C 229.578125 130.390625 229.605469 130.359375 230.25 132.460938 C 231.226562 135.625 232.21875 140.851562 232.46875 144.144531 L 232.71875 147.382812 L 234.992188 147.492188 C 236.246094 147.554688 238.066406 147.601562 239.039062 147.601562 L 240.808594 147.601562 Z M 254.457031 143.605469 C 254.09375 137.519531 252.796875 130.574219 250.984375 125.003906 C 250.285156 122.855469 250.066406 122.695312 248.738281 123.371094 C 248.171875 123.660156 245.816406 124.527344 243.511719 125.296875 C 237.785156 127.207031 237.960938 127.03125 238.910156 129.914062 C 240.007812 133.246094 241.101562 139.207031 241.378906 143.335938 C 241.511719 145.273438 241.679688 147.066406 241.761719 147.324219 C 241.867188 147.671875 243.511719 147.789062 248.308594 147.789062 L 254.710938 147.789062 Z M 258.171875 144.164062 C 257.792969 138.785156 256.933594 133.261719 255.730469 128.449219 C 254.15625 122.167969 254.117188 122.085938 252.554688 122.191406 C 250.96875 122.300781 250.96875 121.820312 252.535156 127.796875 C 253.960938 133.261719 254.800781 138.082031 255.203125 143.140625 C 255.449219 146.242188 255.503906 146.746094 255.660156 147.507812 C 255.691406 147.664062 256.324219 147.789062 257.070312 147.789062 L 258.425781 147.789062 Z M 283.289062 139.605469 L 283.289062 131.425781 L 280.03125 131.382812 C 256.949219 131.085938 257.902344 130.917969 258.503906 135.148438 C 259.09375 139.292969 259.425781 143.113281 259.433594 145.835938 L 259.441406 147.789062 L 283.289062 147.789062 Z M 102.738281 126.871094 C 103.34375 124.570312 103.859375 122.601562 103.882812 122.5 C 103.902344 122.398438 104.109375 121.894531 104.34375 121.382812 C 104.574219 120.875 105.257812 119.242188 105.863281 117.757812 L 106.964844 115.0625 L 85.050781 115.0625 L 85.050781 131.054688 L 101.636719 131.054688 Z M 274.40625 130.3125 C 274.476562 130.109375 274.484375 126.429688 274.421875 122.132812 L 274.316406 114.320312 L 263.523438 114.320312 C 257.226562 114.320312 252.730469 114.460938 252.730469 114.660156 C 252.730469 114.847656 253.074219 115.796875 253.492188 116.769531 C 254.648438 119.464844 256.316406 124.585938 257.078125 127.796875 L 257.761719 130.675781 L 266.023438 130.679688 C 271.144531 130.679688 274.328125 130.542969 274.40625 130.3125 Z M 130.316406 127.894531 C 130.777344 126.664062 131.683594 124.695312 132.324219 123.515625 C 132.964844 122.332031 133.492188 121.304688 133.492188 121.226562 C 133.492188 121.050781 127.726562 117.34375 127.046875 117.085938 C 126.507812 116.878906 123.523438 122.515625 122.304688 126.054688 L 121.609375 128.070312 L 125.035156 129.167969 C 129.355469 130.550781 129.308594 130.5625 130.316406 127.890625 Z M 233.390625 128.234375 L 237.027344 126.902344 L 236.097656 124.421875 C 234.992188 121.472656 231.882812 115.804688 231.371094 115.804688 C 231.101562 115.804688 225.65625 119.085938 224.847656 119.738281 C 224.691406 119.863281 229.378906 129.546875 229.601562 129.558594 C 229.6875 129.5625 231.390625 128.964844 233.390625 128.234375 Z M 121.925781 124.898438 C 122.472656 123.476562 123.554688 121.109375 124.328125 119.636719 C 126.113281 116.246094 126.363281 116.652344 120.257812 112.964844 C 114.257812 109.34375 115.046875 109.199219 112.402344 114.414062 C 110.273438 118.613281 108.378906 123.375 108.777344 123.535156 C 110.726562 124.332031 120.34375 127.601562 120.597656 127.550781 C 120.78125 127.515625 121.378906 126.320312 121.925781 124.898438 Z M 240.855469 125.5 C 242.367188 124.898438 245 123.878906 246.707031 123.230469 C 250.472656 121.800781 250.484375 122.367188 246.523438 114.382812 C 243.199219 107.683594 241.527344 107.726562 232.746094 114.746094 C 232.4375 114.992188 232.980469 116.378906 234.644531 119.632812 C 235.921875 122.128906 237.152344 124.71875 237.378906 125.382812 C 237.871094 126.835938 237.523438 126.824219 240.855469 125.5 Z M 109.441406 119.03125 C 110.316406 116.886719 111.726562 113.847656 112.574219 112.277344 C 114.308594 109.066406 113.183594 106 111.222656 108.605469 C 107.695312 113.285156 104.636719 122.230469 106.382812 122.757812 C 107.894531 123.210938 107.574219 123.597656 109.441406 119.03125 Z M 251.96875 121.335938 C 253.613281 120.761719 253.429688 120.007812 249.9375 113.015625 C 246.878906 106.898438 246.140625 105.730469 245.730469 106.363281 C 245.585938 106.585938 245.082031 106.972656 244.613281 107.21875 L 243.757812 107.667969 L 244.480469 108.855469 C 245.898438 111.179688 248.582031 116.582031 249.589844 119.148438 C 250.15625 120.582031 250.648438 121.757812 250.6875 121.757812 C 250.726562 121.757812 251.304688 121.566406 251.96875 121.335938 Z M 136.207031 117.292969 C 137.152344 115.964844 138.457031 114.289062 139.105469 113.574219 L 140.277344 112.273438 L 137.417969 109.578125 C 135.84375 108.09375 134.417969 106.882812 134.253906 106.882812 C 133.59375 106.882812 126.800781 115.96875 127.195312 116.324219 C 127.984375 117.023438 134.089844 120.183594 134.257812 119.980469 C 134.382812 119.832031 135.257812 118.625 136.207031 117.292969 Z M 227.398438 117.425781 C 231.648438 114.65625 231.429688 115.234375 229.328125 112.273438 C 228.308594 110.839844 226.632812 108.75 225.601562 107.625 L 223.722656 105.578125 L 217.972656 111.273438 L 219.425781 113.074219 C 220.222656 114.066406 221.074219 115.085938 221.316406 115.339844 C 221.558594 115.597656 222.292969 116.636719 222.953125 117.652344 C 223.648438 118.722656 224.328125 119.398438 224.566406 119.253906 C 224.789062 119.117188 226.066406 118.292969 227.398438 117.425781 Z M 128.238281 113.109375 C 129.25 111.625 130.851562 109.496094 131.789062 108.371094 C 132.726562 107.246094 133.492188 106.238281 133.492188 106.128906 C 133.492188 105.9375 125.699219 98.601562 124.527344 97.691406 C 123.777344 97.109375 115.609375 107.457031 115.609375 108.992188 C 115.605469 109.316406 125.761719 115.777344 126.308594 115.800781 C 126.351562 115.804688 127.222656 114.59375 128.234375 113.109375 Z M 109.109375 110.878906 C 110.820312 107.546875 114.234375 102.171875 116.410156 99.390625 C 116.992188 98.644531 117.46875 97.933594 117.46875 97.808594 C 117.46875 97.683594 112.1875 97.582031 105.730469 97.582031 L 93.996094 97.582031 L 93.996094 114.320312 L 107.347656 114.320312 Z M 237.164062 111.117188 C 239.886719 109.359375 242.261719 107.78125 242.441406 107.613281 C 243.023438 107.066406 234.484375 95.898438 233.695312 96.175781 C 233.527344 96.234375 231.371094 98.265625 228.902344 100.691406 L 224.414062 105.105469 L 226.183594 107.046875 C 227.15625 108.113281 228.792969 110.179688 229.816406 111.636719 C 232.089844 114.871094 231.273438 114.925781 237.164062 111.117188 Z M 264.945312 105.484375 L 264.84375 97.398438 L 253.570312 97.304688 C 245.644531 97.238281 242.300781 97.332031 242.300781 97.617188 C 242.300781 97.839844 243.535156 99.722656 245.046875 101.800781 C 247.425781 105.074219 249.769531 108.917969 251.597656 112.550781 L 252.113281 113.574219 L 265.046875 113.574219 Z M 144.695312 108.109375 C 147.136719 105.992188 148.351562 104.691406 148.214844 104.339844 C 148.101562 104.042969 147.15625 102.492188 146.113281 100.886719 L 144.214844 97.972656 L 142.554688 99.160156 C 135.101562 104.5 134.421875 105.886719 137.800781 108.863281 C 141.199219 111.855469 140.253906 111.957031 144.695312 108.109375 Z M 220.617188 107.882812 L 223.324219 105.164062 L 220.980469 102.9375 C 219.695312 101.714844 217.617188 99.933594 216.363281 98.980469 L 214.089844 97.25 L 212.042969 100.300781 C 210.914062 101.976562 209.882812 103.542969 209.75 103.777344 C 209.609375 104.03125 210.535156 104.96875 212.027344 106.074219 C 213.410156 107.101562 215.117188 108.539062 215.824219 109.269531 C 217.515625 111.019531 217.488281 111.027344 220.617188 107.882812 Z M 120.445312 100.371094 C 121.738281 98.738281 122.9375 97.21875 123.105469 96.996094 C 123.296875 96.753906 123.007812 96.203125 122.371094 95.59375 L 121.328125 94.597656 L 118.714844 97.855469 C 112.605469 105.480469 111.8125 106.996094 113.421875 107.972656 L 114.589844 108.679688 L 116.339844 106.015625 C 117.300781 104.546875 119.148438 102.007812 120.445312 100.371094 Z M 244.570312 106.242188 C 245.941406 105.433594 245.988281 105.636719 243.746094 102.390625 C 240.292969 97.382812 236.730469 93.457031 235.992188 93.851562 C 234.164062 94.824219 234.257812 95.152344 237.394531 98.902344 C 239.039062 100.871094 241.027344 103.464844 241.808594 104.664062 C 243.457031 107.199219 243.199219 107.050781 244.570312 106.242188 Z M 135.929688 103.867188 C 136.738281 103.03125 138.660156 101.328125 140.195312 100.085938 C 141.734375 98.84375 143.144531 97.695312 143.332031 97.535156 C 143.605469 97.296875 141.539062 93.902344 136.585938 86.46875 C 136.164062 85.832031 124.804688 95.851562 124.996094 96.6875 C 125.113281 97.199219 133.78125 105.394531 134.203125 105.394531 C 134.34375 105.394531 135.121094 104.707031 135.929688 103.867188 Z M 232.160156 96.742188 L 233.390625 95.460938 L 230.601562 92.863281 C 225.160156 87.792969 222.25 85.808594 221.460938 86.640625 C 220.710938 87.433594 214.722656 96.21875 214.722656 96.523438 C 214.722656 96.628906 216.1875 97.902344 217.980469 99.351562 C 219.773438 100.804688 221.8125 102.582031 222.511719 103.304688 L 223.785156 104.621094 L 227.355469 101.320312 C 229.324219 99.507812 231.484375 97.445312 232.160156 96.742188 Z M 151.671875 102.855469 C 152.839844 102.074219 154.925781 100.910156 156.308594 100.273438 L 158.820312 99.113281 L 157.664062 96.023438 C 157.027344 94.324219 156.421875 92.640625 156.316406 92.285156 C 155.988281 91.136719 154.429688 91.695312 148.765625 94.996094 C 145.023438 97.175781 144.429688 97.835938 145.328125 98.832031 C 145.722656 99.269531 146.609375 100.464844 147.296875 101.488281 C 149.503906 104.769531 149.035156 104.621094 151.671875 102.855469 Z M 211.503906 100.1875 L 213.601562 97.03125 L 212.761719 96.390625 C 211.632812 95.527344 203.152344 91.152344 202.96875 91.335938 C 202.726562 91.578125 199.765625 98.78125 199.886719 98.835938 C 201.496094 99.550781 206.90625 102.425781 207.769531 103.023438 C 208.414062 103.472656 209.046875 103.726562 209.175781 103.59375 C 209.300781 103.457031 210.351562 101.925781 211.503906 100.1875 Z M 163.023438 97.589844 C 164.785156 96.984375 166.910156 96.375 167.742188 96.242188 C 168.574219 96.109375 169.257812 95.957031 169.257812 95.902344 C 169.257812 95.71875 168.125 89.589844 167.925781 88.707031 C 167.644531 87.429688 156.589844 90.085938 156.589844 91.429688 C 156.589844 91.8125 158.960938 97.648438 159.414062 98.375 C 159.671875 98.792969 159.351562 98.863281 163.023438 97.59375 Z M 200.871094 94.792969 L 202.363281 91.074219 L 200.988281 90.449219 C 199.148438 89.609375 190.554688 87.359375 190.273438 87.644531 C 190.148438 87.765625 189.757812 89.585938 189.40625 91.6875 L 188.761719 95.507812 L 191.960938 96.332031 C 193.71875 96.785156 196.078125 97.480469 197.203125 97.878906 C 198.332031 98.277344 199.28125 98.582031 199.316406 98.558594 C 199.347656 98.535156 200.046875 96.839844 200.871094 94.792969 Z M 122.03125 92.925781 C 125.472656 89.300781 132.683594 83.179688 135.707031 81.320312 L 136.992188 80.527344 L 132.910156 80.40625 C 130.664062 80.34375 123.882812 80.289062 117.835938 80.289062 L 106.84375 80.289062 L 106.742188 88.566406 L 106.644531 96.839844 L 118.3125 96.839844 L 122.03125 92.921875 Z M 147.074219 95.160156 C 148.640625 94.238281 151.128906 92.878906 152.601562 92.144531 C 154.078125 91.40625 155.332031 90.761719 155.386719 90.714844 C 155.664062 90.472656 150.757812 78.617188 150.382812 78.617188 C 148.96875 78.617188 137.214844 85.316406 137.214844 86.121094 C 137.214844 86.417969 143.957031 96.839844 144.148438 96.839844 C 144.195312 96.839844 145.511719 96.085938 147.074219 95.160156 Z M 253.476562 88.6875 C 253.476562 84.410156 253.375 80.644531 253.25 80.324219 C 253.003906 79.6875 222.171875 79.433594 222.171875 80.066406 C 222.171875 80.226562 222.550781 80.53125 223.011719 80.742188 C 225.851562 82.039062 237.398438 91.855469 239.875 95.074219 L 240.949219 96.46875 L 253.476562 96.46875 Z M 132.59375 88.285156 C 136.042969 85.558594 135.953125 85.707031 135.0625 84.246094 L 134.367188 83.105469 L 131.226562 85.554688 C 129.496094 86.902344 126.703125 89.359375 125.015625 91.011719 L 121.945312 94.023438 L 122.933594 95.050781 L 123.917969 96.078125 L 126.789062 93.34375 C 128.363281 91.839844 130.976562 89.5625 132.59375 88.285156 Z M 217.878906 90.804688 L 221.417969 85.515625 L 218.90625 83.917969 C 214.652344 81.210938 208.464844 78.257812 208.066406 78.746094 C 207.878906 78.984375 206.769531 81.519531 205.605469 84.382812 C 204.441406 87.246094 203.40625 89.777344 203.304688 90.011719 C 203.195312 90.261719 204.707031 91.21875 206.960938 92.324219 C 209.074219 93.363281 211.390625 94.628906 212.109375 95.136719 C 214.054688 96.515625 214.0625 96.507812 217.878906 90.804688 Z M 180.246094 95.179688 L 188.070312 95.132812 L 188.765625 91.316406 C 189.148438 89.21875 189.398438 87.4375 189.316406 87.359375 C 188.457031 86.496094 176.359375 86.410156 171.027344 87.226562 C 168.121094 87.667969 168.238281 87.347656 169.160156 92.304688 L 169.804688 95.792969 L 171.117188 95.511719 C 171.835938 95.355469 175.945312 95.207031 180.246094 95.179688 Z M 233.648438 90.699219 C 231.246094 88.394531 228.921875 86.429688 225.820312 84.070312 L 224.066406 82.734375 L 223.238281 83.894531 L 222.414062 85.050781 L 223.351562 85.832031 C 223.871094 86.261719 225.871094 87.898438 227.796875 89.46875 C 229.722656 91.039062 231.878906 92.921875 232.585938 93.652344 L 233.867188 94.980469 L 234.929688 93.964844 L 235.992188 92.945312 Z M 160.773438 88.871094 C 162.972656 88.140625 165.015625 87.542969 165.316406 87.542969 C 165.613281 87.542969 166.269531 87.386719 166.773438 87.195312 L 167.691406 86.847656 L 167.164062 84.125 C 166.875 82.628906 166.378906 79.820312 166.0625 77.882812 C 165.367188 73.628906 165.671875 73.949219 162.839844 74.527344 C 157.445312 75.632812 151.296875 77.910156 151.507812 78.726562 C 152.125 81.070312 156.085938 90.492188 156.402344 90.355469 C 156.605469 90.269531 158.574219 89.597656 160.773438 88.871094 Z M 204.980469 84.441406 C 207.519531 78.105469 207.53125 78.0625 206.613281 77.6875 C 202.800781 76.136719 192.929688 73.464844 192.519531 73.871094 C 192.175781 74.214844 190.246094 86.457031 190.507812 86.621094 C 190.660156 86.714844 192.714844 87.285156 195.074219 87.894531 C 197.4375 88.5 199.929688 89.242188 200.613281 89.542969 C 201.300781 89.839844 202.050781 90.097656 202.28125 90.113281 C 202.507812 90.132812 203.726562 87.578125 204.980469 84.441406 Z M 175.15625 86.046875 C 179.390625 85.722656 188.148438 86.082031 189.015625 86.617188 C 189.558594 86.953125 192.09375 74.136719 191.582031 73.625 C 190.3125 72.359375 167.332031 72.605469 166.035156 73.902344 C 165.921875 74.011719 166.25 76.332031 166.765625 79.058594 C 167.28125 81.78125 167.8125 84.65625 167.945312 85.445312 C 168.179688 86.828125 168.230469 86.871094 169.375 86.640625 C 170.027344 86.507812 172.628906 86.242188 175.15625 86.046875 Z M 146.527344 79.488281 C 150.78125 77.464844 150.453125 77.769531 149.886719 76.398438 C 149.179688 74.691406 141.292969 77.980469 135.753906 82.289062 L 134.859375 82.984375 L 135.667969 84.121094 L 136.476562 85.253906 L 139.730469 83.214844 C 141.523438 82.089844 144.582031 80.414062 146.527344 79.488281 Z M 222.6875 83.652344 C 223.511719 82.394531 223.585938 82.511719 220.773438 80.703125 C 214.527344 76.679688 209.800781 74.765625 209.140625 75.988281 C 208.421875 77.335938 208.769531 77.6875 212.769531 79.644531 C 214.96875 80.722656 217.773438 82.257812 219.003906 83.054688 C 221.679688 84.792969 221.910156 84.832031 222.6875 83.652344 Z M 141.457031 77.964844 C 142.914062 77.191406 144.992188 76.15625 146.070312 75.660156 L 148.035156 74.761719 L 147.933594 68.789062 L 147.832031 62.8125 L 117.089844 62.632812 L 117.089844 79.34375 L 124.449219 79.445312 C 137.828125 79.628906 138.414062 79.578125 141.457031 77.964844 Z M 242.667969 70.992188 L 242.667969 62.625 L 211.738281 62.625 L 211.738281 74.71875 L 215.871094 76.757812 C 218.144531 77.878906 220.082031 78.921875 220.179688 79.078125 C 220.277344 79.234375 225.375 79.359375 231.511719 79.359375 L 242.667969 79.359375 Z M 161.0625 74.171875 L 164.976562 73.136719 L 164.871094 71.898438 C 164.8125 71.21875 164.699219 70.59375 164.617188 70.511719 C 164.222656 70.121094 150.703125 73.988281 149.957031 74.707031 C 149.890625 74.769531 150.085938 75.402344 150.386719 76.121094 L 150.929688 77.421875 L 154.039062 76.3125 C 155.75 75.707031 158.910156 74.742188 161.0625 74.171875 Z M 208.394531 75.992188 C 209.039062 74.445312 205.351562 72.773438 197.367188 71 C 195.945312 70.683594 194.414062 70.339844 193.964844 70.242188 C 193.265625 70.085938 193.105469 70.257812 192.894531 71.378906 C 192.574219 73.070312 192.386719 72.945312 196.894531 73.980469 C 199.011719 74.464844 202.171875 75.359375 203.914062 75.96875 C 207.890625 77.355469 207.828125 77.355469 208.394531 75.992188 Z M 210.925781 67.128906 L 210.808594 62.8125 L 195.554688 62.714844 C 178.363281 62.605469 179.707031 62.34375 179.699219 65.808594 L 179.691406 68.0625 L 185.746094 68.535156 C 189.078125 68.796875 192.054688 69.015625 192.363281 69.019531 C 193.628906 69.050781 204.40625 71.960938 207.488281 73.109375 L 210.808594 74.34375 L 210.925781 72.894531 C 210.988281 72.097656 210.988281 69.503906 210.925781 67.128906 Z M 160.65625 70.5625 C 165.871094 69.304688 168.964844 68.832031 175.59375 68.28125 L 178.761719 68.019531 L 178.871094 65.320312 L 178.980469 62.617188 L 163.964844 62.714844 L 148.953125 62.8125 L 148.847656 67.929688 C 148.714844 74.492188 148.59375 74.359375 153.203125 72.75 C 155.167969 72.0625 158.523438 71.078125 160.65625 70.5625 Z M 170.742188 72.304688 C 176.375 71.625 188.226562 71.957031 191.289062 72.875 C 191.859375 73.046875 192.644531 70.59375 192.167969 70.117188 C 190.824219 68.777344 166.644531 68.832031 165.296875 70.179688 C 164.65625 70.816406 165.746094 73.054688 166.609375 72.878906 C 167.144531 72.769531 169.003906 72.511719 170.742188 72.304688 Z M 163.210938 54.15625 L 163.113281 46.078125 L 132.082031 45.882812 L 131.945312 46.910156 C 131.871094 47.476562 131.859375 51.15625 131.917969 55.089844 L 132.027344 62.238281 L 147.671875 62.238281 L 163.3125 62.234375 Z M 194.597656 54.066406 L 194.597656 45.890625 L 164.144531 45.890625 L 163.9375 48.960938 C 163.824219 50.648438 163.792969 53.617188 163.871094 55.5625 C 163.949219 57.503906 164.019531 59.800781 164.027344 60.667969 L 164.042969 62.242188 L 194.597656 62.242188 Z M 225.441406 53.980469 L 225.542969 45.890625 L 195.34375 45.890625 L 195.34375 53.824219 C 195.34375 63.464844 193.203125 62.292969 210.601562 62.171875 L 225.339844 62.070312 Z M 275.457031 237.78125 C 275.457031 237.578125 275.953125 237.410156 276.554688 237.410156 C 277.15625 237.410156 277.753906 237.578125 277.882812 237.78125 C 278.019531 238.003906 277.574219 238.15625 276.785156 238.15625 C 276.054688 238.15625 275.457031 237.988281 275.457031 237.78125 Z M 279 237.78125 C 279.125 237.578125 279.628906 237.410156 280.117188 237.410156 C 280.605469 237.410156 281.109375 237.578125 281.234375 237.78125 C 281.371094 238.003906 280.921875 238.15625 280.117188 238.15625 C 279.3125 238.15625 278.863281 238.003906 279 237.78125 Z M 282.539062 237.78125 C 282.539062 237.578125 282.875 237.410156 283.285156 237.410156 C 283.695312 237.410156 284.03125 237.578125 284.03125 237.78125 C 284.03125 237.988281 283.695312 238.15625 283.285156 238.15625 C 282.875 238.15625 282.539062 237.988281 282.539062 237.78125 Z M 100.605469 62.367188 C 101.066406 62.277344 101.820312 62.277344 102.28125 62.367188 C 102.742188 62.453125 102.363281 62.527344 101.441406 62.527344 C 100.519531 62.527344 100.144531 62.453125 100.605469 62.367188 Z M 100.605469 62.367188 " fill-opacity="1" fill-rule="nonzero"/></g><g clip-path="url(#25a4583dec)"><path fill="#8c52ff" d="M 297.375 213.484375 L 296.8125 213.484375 L 296.8125 250.285156 L 303.898438 257.371094 L 303.898438 278.925781 L 304.460938 278.925781 L 304.460938 280.878906 L 302.433594 280.878906 L 302.433594 278.925781 L 302.996094 278.925781 L 302.996094 257.746094 L 295.910156 250.660156 L 295.910156 213.488281 L 295.347656 213.488281 L 295.347656 211.535156 L 297.375 211.535156 Z M 297.375 265.949219 L 296.8125 265.949219 L 296.8125 289.359375 L 297.335938 289.359375 L 297.335938 289.394531 L 297.375 289.394531 L 297.375 291.347656 L 297.335938 291.347656 L 297.335938 291.382812 L 295.386719 291.382812 L 295.386719 291.347656 L 295.351562 291.347656 L 295.351562 290.820312 L 271.941406 290.820312 L 271.941406 291.382812 L 269.992188 291.382812 L 269.992188 289.359375 L 271.941406 289.359375 L 271.941406 289.921875 L 295.351562 289.921875 L 295.351562 289.394531 L 295.386719 289.394531 L 295.386719 289.359375 L 295.910156 289.359375 L 295.910156 265.949219 L 295.347656 265.949219 L 295.347656 263.996094 L 297.375 263.996094 Z M 255.273438 297.242188 L 255.273438 296.675781 L 236.75 296.675781 L 236.75 297.242188 L 234.800781 297.242188 L 234.800781 295.214844 L 236.75 295.214844 L 236.75 295.777344 L 255.273438 295.777344 L 255.273438 295.214844 L 257.222656 295.214844 L 257.222656 297.242188 Z M 301.203125 249.28125 L 301.765625 249.28125 L 301.765625 230.761719 L 301.203125 230.761719 L 301.203125 228.808594 L 303.230469 228.808594 L 303.230469 230.761719 L 302.667969 230.761719 L 302.667969 249.28125 L 303.230469 249.28125 L 303.230469 251.230469 L 301.203125 251.230469 Z M 219.476562 289.359375 L 219.476562 289.921875 L 256.648438 289.921875 L 256.78125 290.050781 L 263.734375 297.007812 L 284.914062 297.007812 L 284.914062 296.441406 L 286.867188 296.441406 L 286.867188 298.46875 L 284.914062 298.46875 L 284.914062 297.90625 L 263.359375 297.90625 L 263.230469 297.773438 L 256.277344 290.820312 L 219.476562 290.820312 L 219.476562 291.382812 L 217.523438 291.382812 L 217.523438 289.359375 Z M 219.476562 289.359375 " fill-opacity="1" fill-rule="nonzero"/></g><g fill="#201818" fill-opacity="1"><g transform="translate(73.701808, 283.919717)"><g><path d="M 24.671875 -16.546875 L 19.234375 -16.546875 C 19.023438 -17.941406 18.425781 -19.039062 17.4375 -19.84375 C 16.445312 -20.644531 15.21875 -21.046875 13.75 -21.046875 C 11.769531 -21.046875 10.1875 -20.320312 9 -18.875 C 7.8125 -17.425781 7.21875 -15.378906 7.21875 -12.734375 C 7.21875 -10.015625 7.816406 -7.945312 9.015625 -6.53125 C 10.210938 -5.113281 11.773438 -4.40625 13.703125 -4.40625 C 15.140625 -4.40625 16.351562 -4.78125 17.34375 -5.53125 C 18.34375 -6.28125 18.972656 -7.335938 19.234375 -8.703125 L 24.671875 -8.671875 C 24.484375 -7.117188 23.925781 -5.65625 23 -4.28125 C 22.082031 -2.90625 20.832031 -1.789062 19.25 -0.9375 C 17.675781 -0.0820312 15.800781 0.34375 13.625 0.34375 C 11.351562 0.34375 9.320312 -0.164062 7.53125 -1.1875 C 5.75 -2.21875 4.34375 -3.707031 3.3125 -5.65625 C 2.28125 -7.601562 1.765625 -9.960938 1.765625 -12.734375 C 1.765625 -15.503906 2.285156 -17.863281 3.328125 -19.8125 C 4.367188 -21.757812 5.785156 -23.242188 7.578125 -24.265625 C 9.367188 -25.285156 11.382812 -25.796875 13.625 -25.796875 C 15.582031 -25.796875 17.347656 -25.429688 18.921875 -24.703125 C 20.503906 -23.984375 21.800781 -22.929688 22.8125 -21.546875 C 23.820312 -20.171875 24.441406 -18.503906 24.671875 -16.546875 Z M 24.671875 -16.546875 "/></g></g></g><g fill="#201818" fill-opacity="1"><g transform="translate(109.645374, 283.919717)"><g><path d="M 25.609375 -12.734375 C 25.609375 -9.953125 25.082031 -7.585938 24.03125 -5.640625 C 22.976562 -3.691406 21.550781 -2.207031 19.75 -1.1875 C 17.957031 -0.164062 15.9375 0.34375 13.6875 0.34375 C 11.425781 0.34375 9.394531 -0.164062 7.59375 -1.1875 C 5.789062 -2.21875 4.367188 -3.707031 3.328125 -5.65625 C 2.285156 -7.613281 1.765625 -9.972656 1.765625 -12.734375 C 1.765625 -15.503906 2.285156 -17.863281 3.328125 -19.8125 C 4.367188 -21.757812 5.789062 -23.242188 7.59375 -24.265625 C 9.394531 -25.285156 11.425781 -25.796875 13.6875 -25.796875 C 15.9375 -25.796875 17.957031 -25.285156 19.75 -24.265625 C 21.550781 -23.242188 22.976562 -21.757812 24.03125 -19.8125 C 25.082031 -17.863281 25.609375 -15.503906 25.609375 -12.734375 Z M 20.140625 -12.734375 C 20.140625 -15.429688 19.550781 -17.488281 18.375 -18.90625 C 17.207031 -20.332031 15.644531 -21.046875 13.6875 -21.046875 C 11.726562 -21.046875 10.160156 -20.332031 8.984375 -18.90625 C 7.804688 -17.488281 7.21875 -15.429688 7.21875 -12.734375 C 7.21875 -10.035156 7.804688 -7.972656 8.984375 -6.546875 C 10.160156 -5.117188 11.726562 -4.40625 13.6875 -4.40625 C 15.644531 -4.40625 17.207031 -5.117188 18.375 -6.546875 C 19.550781 -7.972656 20.140625 -10.035156 20.140625 -12.734375 Z M 20.140625 -12.734375 "/></g></g></g><g fill="#201818" fill-opacity="1"><g transform="translate(146.632734, 283.919717)"><g><path d="M 23.5 -25.453125 L 23.5 0 L 18.859375 0 L 7.78125 -16.015625 L 7.59375 -16.015625 L 7.59375 0 L 2.21875 0 L 2.21875 -25.453125 L 6.9375 -25.453125 L 17.921875 -9.453125 L 18.140625 -9.453125 L 18.140625 -25.453125 Z M 23.5 -25.453125 "/></g></g></g><g fill="#201818" fill-opacity="1"><g transform="translate(181.979846, 283.919717)"><g><path d="M 16.015625 -18.140625 C 15.921875 -19.140625 15.492188 -19.914062 14.734375 -20.46875 C 13.972656 -21.019531 12.953125 -21.296875 11.671875 -21.296875 C 10.347656 -21.296875 9.332031 -21.023438 8.625 -20.484375 C 7.925781 -19.953125 7.578125 -19.273438 7.578125 -18.453125 C 7.566406 -17.546875 7.957031 -16.859375 8.75 -16.390625 C 9.550781 -15.921875 10.503906 -15.554688 11.609375 -15.296875 L 13.890625 -14.75 C 15.367188 -14.414062 16.679688 -13.929688 17.828125 -13.296875 C 18.972656 -12.671875 19.875 -11.863281 20.53125 -10.875 C 21.195312 -9.882812 21.53125 -8.679688 21.53125 -7.265625 C 21.519531 -4.941406 20.644531 -3.085938 18.90625 -1.703125 C 17.175781 -0.328125 14.753906 0.359375 11.640625 0.359375 C 8.554688 0.359375 6.09375 -0.34375 4.25 -1.75 C 2.40625 -3.15625 1.453125 -5.234375 1.390625 -7.984375 L 6.59375 -7.984375 C 6.6875 -6.710938 7.191406 -5.753906 8.109375 -5.109375 C 9.023438 -4.472656 10.179688 -4.15625 11.578125 -4.15625 C 12.953125 -4.15625 14.046875 -4.441406 14.859375 -5.015625 C 15.671875 -5.597656 16.082031 -6.351562 16.09375 -7.28125 C 16.082031 -8.144531 15.703125 -8.804688 14.953125 -9.265625 C 14.210938 -9.734375 13.148438 -10.132812 11.765625 -10.46875 L 9 -11.15625 C 6.851562 -11.675781 5.15625 -12.492188 3.90625 -13.609375 C 2.664062 -14.722656 2.050781 -16.21875 2.0625 -18.09375 C 2.050781 -19.632812 2.460938 -20.984375 3.296875 -22.140625 C 4.128906 -23.296875 5.273438 -24.191406 6.734375 -24.828125 C 8.191406 -25.472656 9.847656 -25.796875 11.703125 -25.796875 C 13.597656 -25.796875 15.25 -25.472656 16.65625 -24.828125 C 18.070312 -24.179688 19.171875 -23.28125 19.953125 -22.125 C 20.742188 -20.976562 21.148438 -19.648438 21.171875 -18.140625 Z M 16.015625 -18.140625 "/></g></g></g><g fill="#8c52ff" fill-opacity="1"><g transform="translate(214.526021, 283.919717)"><g><path d="M 1.25 -21.015625 L 1.25 -25.453125 L 22.15625 -25.453125 L 22.15625 -21.015625 L 14.359375 -21.015625 L 14.359375 0 L 9.03125 0 L 9.03125 -21.015625 Z M 1.25 -21.015625 "/></g></g></g><g fill="#8c52ff" fill-opacity="1"><g transform="translate(247.537017, 283.919717)"><g><path d="M 7.59375 -25.453125 L 7.59375 0 L 2.21875 0 L 2.21875 -25.453125 Z M 7.59375 -25.453125 "/></g></g></g><g fill="#8c52ff" fill-opacity="1"><g transform="translate(266.978674, 283.919717)"><g><path d="M 24.671875 -16.546875 L 19.234375 -16.546875 C 19.023438 -17.941406 18.425781 -19.039062 17.4375 -19.84375 C 16.445312 -20.644531 15.21875 -21.046875 13.75 -21.046875 C 11.769531 -21.046875 10.1875 -20.320312 9 -18.875 C 7.8125 -17.425781 7.21875 -15.378906 7.21875 -12.734375 C 7.21875 -10.015625 7.816406 -7.945312 9.015625 -6.53125 C 10.210938 -5.113281 11.773438 -4.40625 13.703125 -4.40625 C 15.140625 -4.40625 16.351562 -4.78125 17.34375 -5.53125 C 18.34375 -6.28125 18.972656 -7.335938 19.234375 -8.703125 L 24.671875 -8.671875 C 24.484375 -7.117188 23.925781 -5.65625 23 -4.28125 C 22.082031 -2.90625 20.832031 -1.789062 19.25 -0.9375 C 17.675781 -0.0820312 15.800781 0.34375 13.625 0.34375 C 11.351562 0.34375 9.320312 -0.164062 7.53125 -1.1875 C 5.75 -2.21875 4.34375 -3.707031 3.3125 -5.65625 C 2.28125 -7.601562 1.765625 -9.960938 1.765625 -12.734375 C 1.765625 -15.503906 2.285156 -17.863281 3.328125 -19.8125 C 4.367188 -21.757812 5.785156 -23.242188 7.578125 -24.265625 C 9.367188 -25.285156 11.382812 -25.796875 13.625 -25.796875 C 15.582031 -25.796875 17.347656 -25.429688 18.921875 -24.703125 C 20.503906 -23.984375 21.800781 -22.929688 22.8125 -21.546875 C 23.820312 -20.171875 24.441406 -18.503906 24.671875 -16.546875 Z M 24.671875 -16.546875 "/></g></g></g><g fill="#201818" fill-opacity="1"><g transform="translate(117.691027, 305.922679)"><g><path d="M 5.578125 -4.140625 L 4.84375 -4.140625 C 4.789062 -4.421875 4.679688 -4.65625 4.515625 -4.84375 C 4.347656 -5.03125 4.144531 -5.171875 3.90625 -5.265625 C 3.664062 -5.367188 3.414062 -5.421875 3.15625 -5.421875 C 2.789062 -5.421875 2.457031 -5.328125 2.15625 -5.140625 C 1.863281 -4.960938 1.628906 -4.691406 1.453125 -4.328125 C 1.285156 -3.972656 1.203125 -3.535156 1.203125 -3.015625 C 1.203125 -2.492188 1.285156 -2.050781 1.453125 -1.6875 C 1.628906 -1.332031 1.863281 -1.0625 2.15625 -0.875 C 2.457031 -0.6875 2.789062 -0.59375 3.15625 -0.59375 C 3.414062 -0.59375 3.664062 -0.640625 3.90625 -0.734375 C 4.144531 -0.835938 4.347656 -0.984375 4.515625 -1.171875 C 4.679688 -1.367188 4.789062 -1.601562 4.84375 -1.875 L 5.578125 -1.875 C 5.503906 -1.46875 5.351562 -1.117188 5.125 -0.828125 C 4.894531 -0.535156 4.609375 -0.3125 4.265625 -0.15625 C 3.929688 0 3.5625 0.078125 3.15625 0.078125 C 2.632812 0.078125 2.175781 -0.046875 1.78125 -0.296875 C 1.382812 -0.546875 1.070312 -0.898438 0.84375 -1.359375 C 0.613281 -1.828125 0.5 -2.378906 0.5 -3.015625 C 0.5 -3.648438 0.613281 -4.195312 0.84375 -4.65625 C 1.070312 -5.125 1.382812 -5.484375 1.78125 -5.734375 C 2.175781 -5.984375 2.632812 -6.109375 3.15625 -6.109375 C 3.5625 -6.109375 3.929688 -6.03125 4.265625 -5.875 C 4.609375 -5.71875 4.894531 -5.492188 5.125 -5.203125 C 5.351562 -4.910156 5.503906 -4.554688 5.578125 -4.140625 Z M 5.578125 -4.140625 "/></g></g></g><g fill="#201818" fill-opacity="1"><g transform="translate(130.345348, 305.922679)"><g><path d="M 5.8125 -3.015625 C 5.8125 -2.378906 5.695312 -1.828125 5.46875 -1.359375 C 5.238281 -0.898438 4.921875 -0.546875 4.515625 -0.296875 C 4.117188 -0.046875 3.664062 0.078125 3.15625 0.078125 C 2.632812 0.078125 2.175781 -0.046875 1.78125 -0.296875 C 1.382812 -0.546875 1.070312 -0.898438 0.84375 -1.359375 C 0.613281 -1.828125 0.5 -2.378906 0.5 -3.015625 C 0.5 -3.648438 0.613281 -4.195312 0.84375 -4.65625 C 1.070312 -5.125 1.382812 -5.484375 1.78125 -5.734375 C 2.175781 -5.984375 2.632812 -6.109375 3.15625 -6.109375 C 3.664062 -6.109375 4.117188 -5.984375 4.515625 -5.734375 C 4.921875 -5.484375 5.238281 -5.125 5.46875 -4.65625 C 5.695312 -4.195312 5.8125 -3.648438 5.8125 -3.015625 Z M 5.109375 -3.015625 C 5.109375 -3.535156 5.019531 -3.972656 4.84375 -4.328125 C 4.664062 -4.691406 4.429688 -4.960938 4.140625 -5.140625 C 3.847656 -5.328125 3.519531 -5.421875 3.15625 -5.421875 C 2.789062 -5.421875 2.457031 -5.328125 2.15625 -5.140625 C 1.863281 -4.960938 1.628906 -4.691406 1.453125 -4.328125 C 1.285156 -3.972656 1.203125 -3.535156 1.203125 -3.015625 C 1.203125 -2.492188 1.285156 -2.050781 1.453125 -1.6875 C 1.628906 -1.332031 1.863281 -1.0625 2.15625 -0.875 C 2.457031 -0.6875 2.789062 -0.59375 3.15625 -0.59375 C 3.519531 -0.59375 3.847656 -0.6875 4.140625 -0.875 C 4.429688 -1.0625 4.664062 -1.332031 4.84375 -1.6875 C 5.019531 -2.050781 5.109375 -2.492188 5.109375 -3.015625 Z M 5.109375 -3.015625 "/></g></g></g><g fill="#201818" fill-opacity="1"><g transform="translate(143.282132, 305.922679)"><g><path d="M 5.5 -6.015625 L 5.5 0 L 4.796875 0 L 1.515625 -4.734375 L 1.453125 -4.734375 L 1.453125 0 L 0.734375 0 L 0.734375 -6.015625 L 1.4375 -6.015625 L 4.734375 -1.28125 L 4.78125 -1.28125 L 4.78125 -6.015625 Z M 5.5 -6.015625 "/></g></g></g><g fill="#201818" fill-opacity="1"><g transform="translate(156.148296, 305.922679)"><g><path d="M 4.015625 -4.515625 C 3.984375 -4.816406 3.84375 -5.046875 3.59375 -5.203125 C 3.34375 -5.367188 3.035156 -5.453125 2.671875 -5.453125 C 2.273438 -5.453125 1.953125 -5.359375 1.703125 -5.171875 C 1.460938 -4.984375 1.34375 -4.742188 1.34375 -4.453125 C 1.34375 -4.242188 1.40625 -4.070312 1.53125 -3.9375 C 1.664062 -3.800781 1.820312 -3.695312 2 -3.625 C 2.1875 -3.550781 2.351562 -3.492188 2.5 -3.453125 L 3.125 -3.296875 C 3.28125 -3.253906 3.453125 -3.195312 3.640625 -3.125 C 3.835938 -3.050781 4.023438 -2.953125 4.203125 -2.828125 C 4.378906 -2.703125 4.523438 -2.539062 4.640625 -2.34375 C 4.753906 -2.15625 4.8125 -1.921875 4.8125 -1.640625 C 4.8125 -1.304688 4.722656 -1.007812 4.546875 -0.75 C 4.378906 -0.488281 4.132812 -0.28125 3.8125 -0.125 C 3.488281 0.03125 3.097656 0.109375 2.640625 0.109375 C 1.992188 0.109375 1.476562 -0.0390625 1.09375 -0.34375 C 0.71875 -0.65625 0.507812 -1.054688 0.46875 -1.546875 L 1.21875 -1.546875 C 1.238281 -1.328125 1.316406 -1.140625 1.453125 -0.984375 C 1.585938 -0.835938 1.757812 -0.726562 1.96875 -0.65625 C 2.175781 -0.582031 2.398438 -0.546875 2.640625 -0.546875 C 2.910156 -0.546875 3.15625 -0.59375 3.375 -0.6875 C 3.601562 -0.78125 3.78125 -0.90625 3.90625 -1.0625 C 4.039062 -1.226562 4.109375 -1.421875 4.109375 -1.640625 C 4.109375 -1.847656 4.050781 -2.015625 3.9375 -2.140625 C 3.820312 -2.265625 3.671875 -2.363281 3.484375 -2.4375 C 3.304688 -2.519531 3.113281 -2.585938 2.90625 -2.640625 L 2.171875 -2.859375 C 1.691406 -2.992188 1.316406 -3.1875 1.046875 -3.4375 C 0.773438 -3.6875 0.640625 -4.015625 0.640625 -4.421875 C 0.640625 -4.753906 0.726562 -5.046875 0.90625 -5.296875 C 1.09375 -5.554688 1.34375 -5.753906 1.65625 -5.890625 C 1.96875 -6.035156 2.3125 -6.109375 2.6875 -6.109375 C 3.082031 -6.109375 3.429688 -6.035156 3.734375 -5.890625 C 4.035156 -5.753906 4.273438 -5.566406 4.453125 -5.328125 C 4.628906 -5.085938 4.722656 -4.816406 4.734375 -4.515625 Z M 4.015625 -4.515625 "/></g></g></g><g fill="#201818" fill-opacity="1"><g transform="translate(168.06116, 305.922679)"><g><path d="M 0.40625 -5.375 L 0.40625 -6.015625 L 4.921875 -6.015625 L 4.921875 -5.375 L 3.015625 -5.375 L 3.015625 0 L 2.296875 0 L 2.296875 -5.375 Z M 0.40625 -5.375 "/></g></g></g><g fill="#201818" fill-opacity="1"><g transform="translate(180.00933, 305.922679)"><g><path d="M 0.734375 0 L 0.734375 -6.015625 L 2.765625 -6.015625 C 3.234375 -6.015625 3.617188 -5.9375 3.921875 -5.78125 C 4.222656 -5.625 4.445312 -5.40625 4.59375 -5.125 C 4.738281 -4.84375 4.8125 -4.523438 4.8125 -4.171875 C 4.8125 -3.773438 4.71875 -3.425781 4.53125 -3.125 C 4.351562 -2.832031 4.070312 -2.617188 3.6875 -2.484375 L 5.046875 0 L 4.203125 0 L 2.921875 -2.359375 C 2.878906 -2.359375 2.832031 -2.359375 2.78125 -2.359375 L 1.453125 -2.359375 L 1.453125 0 Z M 1.453125 -3.015625 L 2.75 -3.015625 C 3.226562 -3.015625 3.570312 -3.117188 3.78125 -3.328125 C 3.988281 -3.535156 4.09375 -3.816406 4.09375 -4.171875 C 4.09375 -4.535156 3.988281 -4.828125 3.78125 -5.046875 C 3.570312 -5.265625 3.222656 -5.375 2.734375 -5.375 L 1.453125 -5.375 Z M 1.453125 -3.015625 "/></g></g></g><g fill="#201818" fill-opacity="1"><g transform="translate(191.933962, 305.922679)"><g><path d="M 4.6875 -6.015625 L 5.40625 -6.015625 L 5.40625 -2.03125 C 5.40625 -1.582031 5.296875 -1.195312 5.078125 -0.875 C 4.867188 -0.5625 4.585938 -0.316406 4.234375 -0.140625 C 3.878906 0.0234375 3.488281 0.109375 3.0625 0.109375 C 2.644531 0.109375 2.257812 0.0234375 1.90625 -0.140625 C 1.550781 -0.316406 1.265625 -0.5625 1.046875 -0.875 C 0.835938 -1.195312 0.734375 -1.582031 0.734375 -2.03125 L 0.734375 -6.015625 L 1.453125 -6.015625 L 1.453125 -2.03125 C 1.453125 -1.71875 1.523438 -1.453125 1.671875 -1.234375 C 1.828125 -1.023438 2.023438 -0.863281 2.265625 -0.75 C 2.515625 -0.632812 2.78125 -0.578125 3.0625 -0.578125 C 3.351562 -0.578125 3.617188 -0.632812 3.859375 -0.75 C 4.109375 -0.863281 4.304688 -1.023438 4.453125 -1.234375 C 4.609375 -1.453125 4.6875 -1.71875 4.6875 -2.03125 Z M 4.6875 -6.015625 "/></g></g></g><g fill="#201818" fill-opacity="1"><g transform="translate(204.705976, 305.922679)"><g><path d="M 5.578125 -4.140625 L 4.84375 -4.140625 C 4.789062 -4.421875 4.679688 -4.65625 4.515625 -4.84375 C 4.347656 -5.03125 4.144531 -5.171875 3.90625 -5.265625 C 3.664062 -5.367188 3.414062 -5.421875 3.15625 -5.421875 C 2.789062 -5.421875 2.457031 -5.328125 2.15625 -5.140625 C 1.863281 -4.960938 1.628906 -4.691406 1.453125 -4.328125 C 1.285156 -3.972656 1.203125 -3.535156 1.203125 -3.015625 C 1.203125 -2.492188 1.285156 -2.050781 1.453125 -1.6875 C 1.628906 -1.332031 1.863281 -1.0625 2.15625 -0.875 C 2.457031 -0.6875 2.789062 -0.59375 3.15625 -0.59375 C 3.414062 -0.59375 3.664062 -0.640625 3.90625 -0.734375 C 4.144531 -0.835938 4.347656 -0.984375 4.515625 -1.171875 C 4.679688 -1.367188 4.789062 -1.601562 4.84375 -1.875 L 5.578125 -1.875 C 5.503906 -1.46875 5.351562 -1.117188 5.125 -0.828125 C 4.894531 -0.535156 4.609375 -0.3125 4.265625 -0.15625 C 3.929688 0 3.5625 0.078125 3.15625 0.078125 C 2.632812 0.078125 2.175781 -0.046875 1.78125 -0.296875 C 1.382812 -0.546875 1.070312 -0.898438 0.84375 -1.359375 C 0.613281 -1.828125 0.5 -2.378906 0.5 -3.015625 C 0.5 -3.648438 0.613281 -4.195312 0.84375 -4.65625 C 1.070312 -5.125 1.382812 -5.484375 1.78125 -5.734375 C 2.175781 -5.984375 2.632812 -6.109375 3.15625 -6.109375 C 3.5625 -6.109375 3.929688 -6.03125 4.265625 -5.875 C 4.609375 -5.71875 4.894531 -5.492188 5.125 -5.203125 C 5.351562 -4.910156 5.503906 -4.554688 5.578125 -4.140625 Z M 5.578125 -4.140625 "/></g></g></g><g fill="#201818" fill-opacity="1"><g transform="translate(217.360301, 305.922679)"><g><path d="M 0.40625 -5.375 L 0.40625 -6.015625 L 4.921875 -6.015625 L 4.921875 -5.375 L 3.015625 -5.375 L 3.015625 0 L 2.296875 0 L 2.296875 -5.375 Z M 0.40625 -5.375 "/></g></g></g><g fill="#201818" fill-opacity="1"><g transform="translate(229.308475, 305.922679)"><g><path d="M 1.453125 -6.015625 L 1.453125 0 L 0.734375 0 L 0.734375 -6.015625 Z M 1.453125 -6.015625 "/></g></g></g><g fill="#201818" fill-opacity="1"><g transform="translate(238.126072, 305.922679)"><g><path d="M 5.8125 -3.015625 C 5.8125 -2.378906 5.695312 -1.828125 5.46875 -1.359375 C 5.238281 -0.898438 4.921875 -0.546875 4.515625 -0.296875 C 4.117188 -0.046875 3.664062 0.078125 3.15625 0.078125 C 2.632812 0.078125 2.175781 -0.046875 1.78125 -0.296875 C 1.382812 -0.546875 1.070312 -0.898438 0.84375 -1.359375 C 0.613281 -1.828125 0.5 -2.378906 0.5 -3.015625 C 0.5 -3.648438 0.613281 -4.195312 0.84375 -4.65625 C 1.070312 -5.125 1.382812 -5.484375 1.78125 -5.734375 C 2.175781 -5.984375 2.632812 -6.109375 3.15625 -6.109375 C 3.664062 -6.109375 4.117188 -5.984375 4.515625 -5.734375 C 4.921875 -5.484375 5.238281 -5.125 5.46875 -4.65625 C 5.695312 -4.195312 5.8125 -3.648438 5.8125 -3.015625 Z M 5.109375 -3.015625 C 5.109375 -3.535156 5.019531 -3.972656 4.84375 -4.328125 C 4.664062 -4.691406 4.429688 -4.960938 4.140625 -5.140625 C 3.847656 -5.328125 3.519531 -5.421875 3.15625 -5.421875 C 2.789062 -5.421875 2.457031 -5.328125 2.15625 -5.140625 C 1.863281 -4.960938 1.628906 -4.691406 1.453125 -4.328125 C 1.285156 -3.972656 1.203125 -3.535156 1.203125 -3.015625 C 1.203125 -2.492188 1.285156 -2.050781 1.453125 -1.6875 C 1.628906 -1.332031 1.863281 -1.0625 2.15625 -0.875 C 2.457031 -0.6875 2.789062 -0.59375 3.15625 -0.59375 C 3.519531 -0.59375 3.847656 -0.6875 4.140625 -0.875 C 4.429688 -1.0625 4.664062 -1.332031 4.84375 -1.6875 C 5.019531 -2.050781 5.109375 -2.492188 5.109375 -3.015625 Z M 5.109375 -3.015625 "/></g></g></g><g fill="#201818" fill-opacity="1"><g transform="translate(251.062861, 305.922679)"><g><path d="M 5.5 -6.015625 L 5.5 0 L 4.796875 0 L 1.515625 -4.734375 L 1.453125 -4.734375 L 1.453125 0 L 0.734375 0 L 0.734375 -6.015625 L 1.4375 -6.015625 L 4.734375 -1.28125 L 4.78125 -1.28125 L 4.78125 -6.015625 Z M 5.5 -6.015625 "/></g></g></g><g fill="#201818" fill-opacity="1"><g transform="translate(121.100234, 316.970235)"><g><path d="M 1.453125 -6.015625 L 1.453125 0 L 0.734375 0 L 0.734375 -6.015625 Z M 1.453125 -6.015625 "/></g></g></g><g fill="#201818" fill-opacity="1"><g transform="translate(129.917827, 316.970235)"><g><path d="M 5.5 -6.015625 L 5.5 0 L 4.796875 0 L 1.515625 -4.734375 L 1.453125 -4.734375 L 1.453125 0 L 0.734375 0 L 0.734375 -6.015625 L 1.4375 -6.015625 L 4.734375 -1.28125 L 4.78125 -1.28125 L 4.78125 -6.015625 Z M 5.5 -6.015625 "/></g></g></g><g fill="#201818" fill-opacity="1"><g transform="translate(142.783991, 316.970235)"><g><path d="M 5.5 -6.015625 L 5.5 0 L 4.796875 0 L 1.515625 -4.734375 L 1.453125 -4.734375 L 1.453125 0 L 0.734375 0 L 0.734375 -6.015625 L 1.4375 -6.015625 L 4.734375 -1.28125 L 4.78125 -1.28125 L 4.78125 -6.015625 Z M 5.5 -6.015625 "/></g></g></g><g fill="#201818" fill-opacity="1"><g transform="translate(155.650155, 316.970235)"><g><path d="M 5.8125 -3.015625 C 5.8125 -2.378906 5.695312 -1.828125 5.46875 -1.359375 C 5.238281 -0.898438 4.921875 -0.546875 4.515625 -0.296875 C 4.117188 -0.046875 3.664062 0.078125 3.15625 0.078125 C 2.632812 0.078125 2.175781 -0.046875 1.78125 -0.296875 C 1.382812 -0.546875 1.070312 -0.898438 0.84375 -1.359375 C 0.613281 -1.828125 0.5 -2.378906 0.5 -3.015625 C 0.5 -3.648438 0.613281 -4.195312 0.84375 -4.65625 C 1.070312 -5.125 1.382812 -5.484375 1.78125 -5.734375 C 2.175781 -5.984375 2.632812 -6.109375 3.15625 -6.109375 C 3.664062 -6.109375 4.117188 -5.984375 4.515625 -5.734375 C 4.921875 -5.484375 5.238281 -5.125 5.46875 -4.65625 C 5.695312 -4.195312 5.8125 -3.648438 5.8125 -3.015625 Z M 5.109375 -3.015625 C 5.109375 -3.535156 5.019531 -3.972656 4.84375 -4.328125 C 4.664062 -4.691406 4.429688 -4.960938 4.140625 -5.140625 C 3.847656 -5.328125 3.519531 -5.421875 3.15625 -5.421875 C 2.789062 -5.421875 2.457031 -5.328125 2.15625 -5.140625 C 1.863281 -4.960938 1.628906 -4.691406 1.453125 -4.328125 C 1.285156 -3.972656 1.203125 -3.535156 1.203125 -3.015625 C 1.203125 -2.492188 1.285156 -2.050781 1.453125 -1.6875 C 1.628906 -1.332031 1.863281 -1.0625 2.15625 -0.875 C 2.457031 -0.6875 2.789062 -0.59375 3.15625 -0.59375 C 3.519531 -0.59375 3.847656 -0.6875 4.140625 -0.875 C 4.429688 -1.0625 4.664062 -1.332031 4.84375 -1.6875 C 5.019531 -2.050781 5.109375 -2.492188 5.109375 -3.015625 Z M 5.109375 -3.015625 "/></g></g></g><g fill="#201818" fill-opacity="1"><g transform="translate(168.586938, 316.970235)"><g><path d="M 0.96875 -6.015625 L 2.765625 -0.953125 L 2.828125 -0.953125 L 4.625 -6.015625 L 5.390625 -6.015625 L 3.171875 0 L 2.421875 0 L 0.21875 -6.015625 Z M 0.96875 -6.015625 "/></g></g></g><g fill="#201818" fill-opacity="1"><g transform="translate(180.817571, 316.970235)"><g><path d="M 0.96875 0 L 0.21875 0 L 2.421875 -6.015625 L 3.171875 -6.015625 L 5.390625 0 L 4.625 0 L 4.015625 -1.703125 L 1.578125 -1.703125 Z M 1.8125 -2.359375 L 3.78125 -2.359375 L 2.828125 -5.0625 L 2.78125 -5.0625 Z M 1.8125 -2.359375 "/></g></g></g><g fill="#201818" fill-opacity="1"><g transform="translate(193.048204, 316.970235)"><g><path d="M 0.40625 -5.375 L 0.40625 -6.015625 L 4.921875 -6.015625 L 4.921875 -5.375 L 3.015625 -5.375 L 3.015625 0 L 2.296875 0 L 2.296875 -5.375 Z M 0.40625 -5.375 "/></g></g></g><g fill="#201818" fill-opacity="1"><g transform="translate(204.996374, 316.970235)"><g><path d="M 1.453125 -6.015625 L 1.453125 0 L 0.734375 0 L 0.734375 -6.015625 Z M 1.453125 -6.015625 "/></g></g></g><g fill="#201818" fill-opacity="1"><g transform="translate(213.813971, 316.970235)"><g><path d="M 5.8125 -3.015625 C 5.8125 -2.378906 5.695312 -1.828125 5.46875 -1.359375 C 5.238281 -0.898438 4.921875 -0.546875 4.515625 -0.296875 C 4.117188 -0.046875 3.664062 0.078125 3.15625 0.078125 C 2.632812 0.078125 2.175781 -0.046875 1.78125 -0.296875 C 1.382812 -0.546875 1.070312 -0.898438 0.84375 -1.359375 C 0.613281 -1.828125 0.5 -2.378906 0.5 -3.015625 C 0.5 -3.648438 0.613281 -4.195312 0.84375 -4.65625 C 1.070312 -5.125 1.382812 -5.484375 1.78125 -5.734375 C 2.175781 -5.984375 2.632812 -6.109375 3.15625 -6.109375 C 3.664062 -6.109375 4.117188 -5.984375 4.515625 -5.734375 C 4.921875 -5.484375 5.238281 -5.125 5.46875 -4.65625 C 5.695312 -4.195312 5.8125 -3.648438 5.8125 -3.015625 Z M 5.109375 -3.015625 C 5.109375 -3.535156 5.019531 -3.972656 4.84375 -4.328125 C 4.664062 -4.691406 4.429688 -4.960938 4.140625 -5.140625 C 3.847656 -5.328125 3.519531 -5.421875 3.15625 -5.421875 C 2.789062 -5.421875 2.457031 -5.328125 2.15625 -5.140625 C 1.863281 -4.960938 1.628906 -4.691406 1.453125 -4.328125 C 1.285156 -3.972656 1.203125 -3.535156 1.203125 -3.015625 C 1.203125 -2.492188 1.285156 -2.050781 1.453125 -1.6875 C 1.628906 -1.332031 1.863281 -1.0625 2.15625 -0.875 C 2.457031 -0.6875 2.789062 -0.59375 3.15625 -0.59375 C 3.519531 -0.59375 3.847656 -0.6875 4.140625 -0.875 C 4.429688 -1.0625 4.664062 -1.332031 4.84375 -1.6875 C 5.019531 -2.050781 5.109375 -2.492188 5.109375 -3.015625 Z M 5.109375 -3.015625 "/></g></g></g><g fill="#201818" fill-opacity="1"><g transform="translate(226.750759, 316.970235)"><g><path d="M 5.5 -6.015625 L 5.5 0 L 4.796875 0 L 1.515625 -4.734375 L 1.453125 -4.734375 L 1.453125 0 L 0.734375 0 L 0.734375 -6.015625 L 1.4375 -6.015625 L 4.734375 -1.28125 L 4.78125 -1.28125 L 4.78125 -6.015625 Z M 5.5 -6.015625 "/></g></g></g><g fill="#201818" fill-opacity="1"><g transform="translate(239.616926, 316.970235)"><g/></g></g><g fill="#201818" fill-opacity="1"><g transform="translate(248.575744, 316.970235)"><g><path d="M 2.34375 0.078125 C 1.945312 0.078125 1.601562 0.00390625 1.3125 -0.140625 C 1.03125 -0.285156 0.8125 -0.484375 0.65625 -0.734375 C 0.5 -0.984375 0.421875 -1.269531 0.421875 -1.59375 C 0.421875 -1.957031 0.53125 -2.265625 0.75 -2.515625 C 0.96875 -2.773438 1.253906 -3.023438 1.609375 -3.265625 C 1.398438 -3.515625 1.226562 -3.75 1.09375 -3.96875 C 0.96875 -4.195312 0.90625 -4.445312 0.90625 -4.71875 C 0.90625 -5.125 1.035156 -5.453125 1.296875 -5.703125 C 1.566406 -5.953125 1.921875 -6.078125 2.359375 -6.078125 C 2.660156 -6.078125 2.921875 -6.019531 3.140625 -5.90625 C 3.359375 -5.789062 3.523438 -5.632812 3.640625 -5.4375 C 3.765625 -5.25 3.828125 -5.046875 3.828125 -4.828125 C 3.828125 -4.535156 3.753906 -4.28125 3.609375 -4.0625 C 3.460938 -3.851562 3.265625 -3.660156 3.015625 -3.484375 L 2.578125 -3.15625 L 3.890625 -1.5625 C 3.972656 -1.707031 4.035156 -1.867188 4.078125 -2.046875 C 4.117188 -2.234375 4.140625 -2.429688 4.140625 -2.640625 L 4.8125 -2.640625 C 4.8125 -2.210938 4.757812 -1.867188 4.65625 -1.609375 C 4.550781 -1.359375 4.441406 -1.160156 4.328125 -1.015625 L 5.171875 0 L 4.328125 0 L 3.90625 -0.515625 C 3.707031 -0.316406 3.460938 -0.164062 3.171875 -0.0625 C 2.890625 0.03125 2.613281 0.078125 2.34375 0.078125 Z M 3.484375 -1.015625 L 2.046875 -2.75 L 1.828125 -2.59375 C 1.554688 -2.382812 1.367188 -2.1875 1.265625 -2 C 1.171875 -1.8125 1.125 -1.675781 1.125 -1.59375 C 1.125 -1.40625 1.171875 -1.226562 1.265625 -1.0625 C 1.367188 -0.90625 1.507812 -0.773438 1.6875 -0.671875 C 1.863281 -0.578125 2.070312 -0.53125 2.3125 -0.53125 C 2.75 -0.53125 3.140625 -0.691406 3.484375 -1.015625 Z M 2.15625 -3.671875 L 2.546875 -3.96875 C 2.722656 -4.070312 2.863281 -4.1875 2.96875 -4.3125 C 3.070312 -4.445312 3.125 -4.617188 3.125 -4.828125 C 3.125 -4.972656 3.054688 -5.117188 2.921875 -5.265625 C 2.785156 -5.410156 2.609375 -5.484375 2.390625 -5.484375 C 2.234375 -5.484375 2.097656 -5.441406 1.984375 -5.359375 C 1.867188 -5.285156 1.773438 -5.1875 1.703125 -5.0625 C 1.640625 -4.945312 1.609375 -4.828125 1.609375 -4.703125 C 1.609375 -4.535156 1.660156 -4.363281 1.765625 -4.1875 C 1.878906 -4.019531 2.007812 -3.847656 2.15625 -3.671875 Z M 2.15625 -3.671875 "/></g></g></g><g fill="#201818" fill-opacity="1"><g transform="translate(143.95055, 328.017791)"><g><path d="M 0.734375 0 L 0.734375 -6.015625 L 4.359375 -6.015625 L 4.359375 -5.375 L 1.453125 -5.375 L 1.453125 -3.34375 L 4.171875 -3.34375 L 4.171875 -2.6875 L 1.453125 -2.6875 L 1.453125 -0.640625 L 4.40625 -0.640625 L 4.40625 0 Z M 0.734375 0 "/></g></g></g><g fill="#201818" fill-opacity="1"><g transform="translate(155.533878, 328.017791)"><g><path d="M 5.8125 -3.015625 C 5.8125 -2.453125 5.71875 -1.953125 5.53125 -1.515625 C 5.351562 -1.085938 5.101562 -0.742188 4.78125 -0.484375 L 5.5625 0.5625 L 4.765625 0.5625 L 4.234375 -0.140625 C 3.898438 0.00390625 3.539062 0.078125 3.15625 0.078125 C 2.632812 0.078125 2.175781 -0.046875 1.78125 -0.296875 C 1.382812 -0.546875 1.070312 -0.898438 0.84375 -1.359375 C 0.613281 -1.828125 0.5 -2.378906 0.5 -3.015625 C 0.5 -3.648438 0.613281 -4.195312 0.84375 -4.65625 C 1.070312 -5.125 1.382812 -5.484375 1.78125 -5.734375 C 2.175781 -5.984375 2.632812 -6.109375 3.15625 -6.109375 C 3.664062 -6.109375 4.117188 -5.984375 4.515625 -5.734375 C 4.921875 -5.484375 5.238281 -5.125 5.46875 -4.65625 C 5.695312 -4.195312 5.8125 -3.648438 5.8125 -3.015625 Z M 2.921875 -1.875 L 3.71875 -1.875 L 4.359375 -1.03125 C 4.585938 -1.238281 4.769531 -1.503906 4.90625 -1.828125 C 5.039062 -2.160156 5.109375 -2.554688 5.109375 -3.015625 C 5.109375 -3.535156 5.019531 -3.972656 4.84375 -4.328125 C 4.664062 -4.691406 4.429688 -4.960938 4.140625 -5.140625 C 3.847656 -5.328125 3.519531 -5.421875 3.15625 -5.421875 C 2.789062 -5.421875 2.457031 -5.328125 2.15625 -5.140625 C 1.863281 -4.960938 1.628906 -4.691406 1.453125 -4.328125 C 1.285156 -3.972656 1.203125 -3.535156 1.203125 -3.015625 C 1.203125 -2.492188 1.285156 -2.050781 1.453125 -1.6875 C 1.628906 -1.332031 1.863281 -1.0625 2.15625 -0.875 C 2.457031 -0.6875 2.789062 -0.59375 3.15625 -0.59375 C 3.382812 -0.59375 3.601562 -0.632812 3.8125 -0.71875 Z M 2.921875 -1.875 "/></g></g></g><g fill="#201818" fill-opacity="1"><g transform="translate(168.470662, 328.017791)"><g><path d="M 4.6875 -6.015625 L 5.40625 -6.015625 L 5.40625 -2.03125 C 5.40625 -1.582031 5.296875 -1.195312 5.078125 -0.875 C 4.867188 -0.5625 4.585938 -0.316406 4.234375 -0.140625 C 3.878906 0.0234375 3.488281 0.109375 3.0625 0.109375 C 2.644531 0.109375 2.257812 0.0234375 1.90625 -0.140625 C 1.550781 -0.316406 1.265625 -0.5625 1.046875 -0.875 C 0.835938 -1.195312 0.734375 -1.582031 0.734375 -2.03125 L 0.734375 -6.015625 L 1.453125 -6.015625 L 1.453125 -2.03125 C 1.453125 -1.71875 1.523438 -1.453125 1.671875 -1.234375 C 1.828125 -1.023438 2.023438 -0.863281 2.265625 -0.75 C 2.515625 -0.632812 2.78125 -0.578125 3.0625 -0.578125 C 3.351562 -0.578125 3.617188 -0.632812 3.859375 -0.75 C 4.109375 -0.863281 4.304688 -1.023438 4.453125 -1.234375 C 4.609375 -1.453125 4.6875 -1.71875 4.6875 -2.03125 Z M 4.6875 -6.015625 "/></g></g></g><g fill="#201818" fill-opacity="1"><g transform="translate(181.242679, 328.017791)"><g><path d="M 0.96875 0 L 0.21875 0 L 2.421875 -6.015625 L 3.171875 -6.015625 L 5.390625 0 L 4.625 0 L 4.015625 -1.703125 L 1.578125 -1.703125 Z M 1.8125 -2.359375 L 3.78125 -2.359375 L 2.828125 -5.0625 L 2.78125 -5.0625 Z M 1.8125 -2.359375 "/></g></g></g><g fill="#201818" fill-opacity="1"><g transform="translate(193.473312, 328.017791)"><g><path d="M 0.734375 0 L 0.734375 -6.015625 L 1.453125 -6.015625 L 1.453125 -0.640625 L 4.265625 -0.640625 L 4.265625 0 Z M 0.734375 0 "/></g></g></g><g fill="#201818" fill-opacity="1"><g transform="translate(204.762416, 328.017791)"><g><path d="M 1.453125 -6.015625 L 1.453125 0 L 0.734375 0 L 0.734375 -6.015625 Z M 1.453125 -6.015625 "/></g></g></g><g fill="#201818" fill-opacity="1"><g transform="translate(213.580008, 328.017791)"><g><path d="M 0.40625 -5.375 L 0.40625 -6.015625 L 4.921875 -6.015625 L 4.921875 -5.375 L 3.015625 -5.375 L 3.015625 0 L 2.296875 0 L 2.296875 -5.375 Z M 0.40625 -5.375 "/></g></g></g><g fill="#201818" fill-opacity="1"><g transform="translate(225.528177, 328.017791)"><g><path d="M 0.21875 -6.015625 L 1.046875 -6.015625 L 2.71875 -3.21875 L 2.78125 -3.21875 L 4.453125 -6.015625 L 5.296875 -6.015625 L 3.125 -2.484375 L 3.125 0 L 2.390625 0 L 2.390625 -2.484375 Z M 0.21875 -6.015625 "/></g></g></g></svg>