<?xml version="1.0" encoding="UTF-8" standalone="no"?>
<!-- Created with Inkscape (http://www.inkscape.org/) -->

<svg
   width="35.039665mm"
   height="35.039513mm"
   viewBox="0 0 35.039665 35.039513"
   version="1.1"
   id="svg346"
   inkscape:version="1.2.2 (b0a8486541, 2022-12-01)"
   sodipodi:docname="logo.svg"
   xmlns:inkscape="http://www.inkscape.org/namespaces/inkscape"
   xmlns:sodipodi="http://sodipodi.sourceforge.net/DTD/sodipodi-0.dtd"
   xmlns="http://www.w3.org/2000/svg"
   xmlns:svg="http://www.w3.org/2000/svg">
  <sodipodi:namedview
     id="namedview348"
     pagecolor="#ffffff"
     bordercolor="#666666"
     borderopacity="1.0"
     inkscape:showpageshadow="2"
     inkscape:pageopacity="0.0"
     inkscape:pagecheckerboard="0"
     inkscape:deskcolor="#d1d1d1"
     inkscape:document-units="mm"
     showgrid="false"
     inkscape:zoom="1.1893044"
     inkscape:cx="153.87146"
     inkscape:cy="164.80222"
     inkscape:window-width="1874"
     inkscape:window-height="1011"
     inkscape:window-x="46"
     inkscape:window-y="32"
     inkscape:window-maximized="1"
     inkscape:current-layer="layer1" />
  <defs
     id="defs343" />
  <g
     inkscape:label="Capa 1"
     inkscape:groupmode="layer"
     id="layer1"
     transform="translate(-86.933556,-130.98024)">
    <g
       id="g16404"
       transform="matrix(0.28918791,0,0,0.28918791,142.59154,118.6452)">
      <circle
         style="fill:#ffffff;fill-opacity:1;stroke-width:0.415569"
         id="path12340"
         cx="-132.0119"
         cy="103.63953"
         r="58.864212" />
      <circle
         style="fill:#c7b692;fill-opacity:1;stroke-width:0.377336"
         id="circle12342"
         cx="-132.0119"
         cy="103.63953"
         r="53.448608" />
      <path
         style="fill:#e6bf6b;fill-opacity:1;stroke-width:0.264583"
         d="m -157.60111,90.124276 53.20625,-0.88333 -1.18908,-9.402971 -6.44756,-13.966502 -6.3888,-1.186725 -12.58567,-0.5676 -17.09814,10.200417 -7.51636,10.214258 z"
         id="path3302" />
      <path
         id="path6864"
         style="fill:#b79049;fill-opacity:1;stroke-width:0.264583"
         d="m -115.51801,64.548515 0.43873,3.091801 a 19.980009,20.303333 0 0 1 5.35316,13.829647 19.980009,20.303333 0 0 1 -5.45806,13.931449 l -0.42892,1.022677 h 15.926162 l 1.385445,-2.864425 -1.420069,-3.786849 -4.726838,-1.879472 -0.493,-6.31486 -1.41438,-8.699727 z" />
      <path
         id="path3300"
         style="fill:#ffffff;fill-opacity:1;stroke-width:0.264583"
         d="m -127.56689,58.653784 -15.81144,2.402954 -9.63145,7.853268 -5.8968,12.545487 1.4273,7.371126 5.57744,0.246497 0.40049,-9.780282 5.59553,-8.800496 10.58488,-5.735567 11.76001,-1.448491 h 4.62194 z m 1.52187,6.062162 c -6.7395,-0.08882 -13.38484,2.064591 -17.70951,6.38204 -1.84393,1.840842 -4.11806,4.766966 -4.87826,6.925675 -0.50223,1.426177 -0.69928,2.328861 -0.15347,4.427637 0.66318,2.550115 0.83456,6.362871 0.83456,5.51956 0,-0.224409 1.4726,0.06181 2.13166,0.06821 l 1.19838,0.01188 v -4.37751 c 0,-2.352718 0.21682,-3.565751 0.96738,-5.404838 1.50765,-3.694173 4.88842,-7.019694 9.35963,-9.20719 2.88526,-1.411583 5.62846,-2.216729 8.93538,-2.622063 1.59087,-0.194984 4.77785,-0.725038 6.34535,-0.531233 0.63964,0.07909 1.20813,0.141019 1.26348,0.137976 0.41525,-0.02279 -2.07163,-0.643872 -3.64112,-0.909505 -1.53795,-0.260295 -3.09819,-0.40015 -4.65346,-0.420647 z"
         sodipodi:nodetypes="ccccccccccccsssssccssssscsss" />
      <rect
         style="fill:#ffffff;fill-opacity:1;stroke-width:0.264583"
         id="rect12234"
         width="79.597069"
         height="45.604107"
         x="-171.43906"
         y="97.864372" />
      <path
         id="rect10155"
         style="fill:#dbd6c1;fill-opacity:1;stroke-width:0.264583"
         d="m -168.44766,101.01228 v 11.77655 h 23.03891 v -11.77655 z m 26.186,0 v 11.77655 h 23.0389 v -11.77655 z m 26.18548,0 v 11.77655 h 22.509791 v -11.77655 z m -52.22678,14.96033 v 11.77655 h 10.48204 v -11.77655 z m 13.75058,0 v 11.77655 h 23.0389 v -11.77655 z m 25.24807,0 v 11.77655 h 23.03892 v -11.77655 z m 26.47439,0 v 11.77655 h 9.952378 v -11.77655 z m -65.57123,15.26677 v 11.77654 h 23.03942 v -11.77654 z m 26.1152,0 v 11.77654 h 23.03942 v -11.77654 z m 26.1152,0 v 11.77654 l 21.980626,-1.05833 0.529167,-10.71821 z"
         sodipodi:nodetypes="cccccccccccccccccccccccccccccccccccccccccccccccccc" />
      <path
         id="path1442"
         style="fill:#1a1a1a;fill-opacity:1;stroke-width:0.486125"
         d="m -132.16594,48.27285 a 54.608177,54.608177 0 0 0 -54.60804,54.60804 54.608177,54.608177 0 0 0 54.60804,54.60803 54.608177,54.608177 0 0 0 54.608549,-54.60803 54.608177,54.608177 0 0 0 -54.608549,-54.60804 z m 0,3.29799 a 51.310074,51.310074 0 0 1 51.310049,51.31005 51.310074,51.310074 0 0 1 -9.47281,29.67053 V 95.616731 H -174.0409 v 36.878359 a 51.310074,51.310074 0 0 1 -9.43509,-29.6142 51.310074,51.310074 0 0 1 51.31005,-51.31005 z m -37.80855,47.860644 h 23.03891 v 11.776536 h -23.03891 z m 26.186,0 h 23.03891 v 11.776536 h -23.03891 z m 26.18548,0 h 23.038909 v 11.776536 h -23.038909 z m -52.22678,14.960326 h 10.48204 v 11.77654 h -10.48204 z m 13.75058,0 h 23.0389 v 11.77654 h -23.0389 z m 25.24807,0 h 23.0389 v 11.77654 h -23.0389 z m 26.47435,0 h 10.481529 v 11.77654 h -10.481529 z m -65.57119,15.26676 h 23.03942 v 11.77655 h -23.03942 z m 26.1152,0 h 23.03942 v 11.77655 h -23.03942 z m 26.11521,0 h 23.038899 v 11.77655 h -23.038899 z m -42.06565,16.445 h 55.19404 a 51.310074,51.310074 0 0 1 -27.59676,8.08736 51.310074,51.310074 0 0 1 -27.59728,-8.08736 z" />
      <path
         id="path1444"
         style="fill:#1a1a1a;fill-opacity:1;stroke-width:0.341538"
         d="m -131.88017,42.654072 a 60.582676,60.582676 0 0 0 -60.58287,60.582348 60.582676,60.582676 0 0 0 60.58287,60.58286 60.582676,60.582676 0 0 0 60.582859,-60.58286 60.582676,60.582676 0 0 0 -60.582859,-60.582348 z m 0,2.696992 a 57.88554,57.88554 0 0 1 57.885359,57.885356 57.88554,57.88554 0 0 1 -57.885359,57.88587 57.88554,57.88554 0 0 1 -57.88536,-57.88587 57.88554,57.88554 0 0 1 57.88536,-57.885356 z" />
      <path
         id="path1446"
         style="fill:#1a1a1a;fill-opacity:1;stroke-width:0.311623"
         d="m -131.48864,56.459713 a 28.816494,27.772459 0 0 0 -28.81633,27.772465 28.816494,27.772459 0 0 0 0.20619,3.108854 h -3.57136 c -2.87538,0 -5.92326,8.64185 -3.04788,8.64185 h 68.69865 c 2.984677,0 0.969907,-8.64185 -1.207161,-8.64185 H -102.863 a 28.816494,27.772459 0 0 0 0.19068,-3.108854 28.816494,27.772459 0 0 0 -28.81632,-27.772465 z m 0,4.120679 a 25.090038,24.181015 0 0 1 9.48469,1.810742 c -1.29836,-0.149315 -2.60986,-0.224461 -3.92328,-0.224793 -14.37939,-8e-5 -26.03642,8.77484 -26.03665,19.599321 0.006,0.800571 0.0767,1.600129 0.21239,2.394169 h 3.33365 c -0.11268,-0.670255 -0.17239,-1.344962 -0.1788,-2.020548 -3e-5,-9.424738 10.14946,-17.065072 22.66941,-17.065109 4.3786,7.48e-4 8.66334,0.955831 12.3362,2.75022 l 5.2e-4,5.17e-4 a 25.090038,24.181015 0 0 1 7.19181,16.936434 25.090038,24.181015 0 0 1 -0.1695,2.579687 h -49.84089 a 25.090038,24.181015 0 0 1 -0.1695,-2.579687 25.090038,24.181015 0 0 1 25.08995,-24.180953 z m -31.38,30.21521 h 61.68771 c 0.73793,0 1.332214,0.448227 1.332214,1.00459 v 2.280481 c 0,0.556362 -0.594284,1.004589 -1.332214,1.004589 h -62.21688 c -0.73794,0 -1.45937,-0.45655 -1.33222,-1.004589 l 0.52917,-2.280481 c 0.12716,-0.548041 0.59428,-1.00459 1.33222,-1.00459 z" />
      <circle
         style="fill:#1a1a1a;fill-opacity:1;stroke-width:0.34708"
         id="circle1448"
         cx="-135.01697"
         cy="76.487724"
         r="2.1501975" />
      <circle
         style="fill:#1a1a1a;fill-opacity:1;stroke-width:0.34708"
         id="circle1450"
         cx="-127.6341"
         cy="76.487724"
         r="2.1501975" />
      <circle
         style="fill:#1a1a1a;fill-opacity:1;stroke-width:0.34708"
         id="circle1452"
         cx="-120.25125"
         cy="76.487724"
         r="2.1501975" />
    </g>
  </g>
</svg>
