<?xml version="1.0" encoding="UTF-8" standalone="no"?>
<!-- Created with Inkscape (http://www.inkscape.org/) -->

<svg
   width="53.229309mm"
   height="58.031502mm"
   viewBox="0 0 53.229309 58.031502"
   version="1.1"
   id="svg5"
   xml:space="preserve"
   xmlns="http://www.w3.org/2000/svg"
   xmlns:svg="http://www.w3.org/2000/svg"><defs
     id="defs2" /><g
     id="layer1"
     transform="translate(-63.038764,-27.431195)"><g
       id="g361"><path
         style="fill:#8c6946;stroke-width:0.0846667"
         d="m 88.695464,85.433447 c 0.31229,-0.0162 0.84569,-0.0163 1.18533,-2.5e-4 0.33965,0.0161 0.0841,0.0294 -0.56779,0.0295 -0.65194,1.7e-4 -0.92983,-0.013 -0.61754,-0.0293 z m -0.73713,-2.21546 c -0.32597,-0.0886 -0.89835,-0.27317 -1.27196,-0.4102 -0.53151,-0.19493 -0.76175,-0.23812 -1.05828,-0.19855 -0.34215,0.0457 -0.45369,0.009 -1.147462,-0.37276 -0.42266,-0.23283 -1.005031,-0.53574 -1.294158,-0.67314 -0.351688,-0.16712 -0.517705,-0.29323 -0.501578,-0.381 0.03107,-0.16908 2.742208,-1.53054 7.093768,-3.5623 0.76835,-0.35874 1.72085,-0.80496 2.11667,-0.99159 2.01803,-0.95153 3.75368,-1.76875 4.36033,-2.05304 0.37254,-0.17458 1.45839,-0.68932 2.413,-1.14388 0.95462,-0.45456 2.078566,-0.98824 2.497666,-1.18596 2.84178,-1.34063 3.429,-1.65351 3.429,-1.82698 0,-0.0546 -0.20612,-0.0846 -0.52917,-0.0769 -1.56556,0.037 -38.525847,-0.0216 -38.42664,-0.0609 0.07746,-0.0307 0.02667,-0.085 -0.148167,-0.15856 l -0.266016,-0.11186 v -4.65914 -4.65914 l 0.1905,-0.0463 c 0.104775,-0.0254 11.087099,-0.0357 24.405167,-0.0228 l 24.214656,0.0235 0.0203,5.37634 c 0.0156,4.14273 -0.004,5.42341 -0.0847,5.58152 -0.13162,0.25737 0.82339,-0.23182 -11.66193,5.97379 -5.844116,2.90472 -10.930466,5.38484 -11.302996,5.51139 -0.91279,0.31006 -2.18283,0.3636 -3.048,0.12847 z m -2.49767,-0.79301 c 0,-0.0494 0.0237,-0.066 0.0526,-0.0371 0.0495,0.0494 0.87154,-0.32405 0.96335,-0.4377 0.0233,-0.0288 0.0995,-0.0632 0.16934,-0.0764 0.26964,-0.0511 0.58861,-0.21035 0.54914,-0.27421 -0.0228,-0.0368 0.0408,-0.0454 0.14131,-0.0192 0.13611,0.0356 0.16519,0.0195 0.11404,-0.0633 -0.044,-0.0712 -0.0356,-0.0906 0.0236,-0.0541 0.1237,0.0764 0.87079,-0.29207 0.80568,-0.39742 -0.0282,-0.0456 -0.0112,-0.0582 0.0378,-0.0279 0.11991,0.0741 0.63456,-0.14816 0.55241,-0.23856 -0.0357,-0.0393 -0.0182,-0.0446 0.0389,-0.0118 0.0571,0.0328 0.24757,-0.0185 0.42334,-0.11407 0.17576,-0.0955 0.87201,-0.41793 1.54723,-0.71643 0.67522,-0.29851 1.58962,-0.71077 2.032,-0.91615 0.44238,-0.20538 1.00436,-0.46295 1.24883,-0.57238 0.24448,-0.10943 0.4445,-0.22392 0.4445,-0.25442 0,-0.0305 0.0476,-0.0562 0.10584,-0.0572 0.10797,-0.002 2.1457,-0.9187 4.03281,-1.81476 0.57657,-0.27377 1.06047,-0.49777 1.07534,-0.49777 0.0149,0 0.381326,-0.16759 0.814356,-0.37241 2.11934,-1.00247 2.62012,-1.23626 2.64811,-1.23626 0.0167,0 0.50021,-0.22273 1.07446,-0.49497 0.57424,-0.27223 1.40603,-0.65951 1.84842,-0.86062 0.44238,-0.20111 0.82764,-0.40073 0.85613,-0.44359 0.0285,-0.0429 0.0777,-0.0709 0.10926,-0.0623 0.0941,0.0257 0.98194,-0.35434 0.98194,-0.42027 0,-0.0334 0.0476,-0.0612 0.10583,-0.0618 0.0582,-5.9e-4 0.27729,-0.0784 0.48684,-0.173 0.20955,-0.0946 0.56478,-0.25194 0.7894,-0.34971 0.26617,-0.11586 0.38693,-0.21251 0.34675,-0.27752 -0.0402,-0.065 -0.025,-0.0771 0.0434,-0.0348 0.10851,0.0671 0.76533,-0.18171 0.86798,-0.32874 0.0318,-0.0456 0.0366,-0.11744 0.0106,-0.15958 -0.026,-0.0421 0.0241,-0.0539 0.11142,-0.0262 0.13688,0.0435 0.1579,0.006 0.15245,-0.27133 -0.0106,-0.54126 -0.0718,-0.56357 -0.79801,-0.29102 -0.0699,0.0262 -0.1651,0.0571 -0.21167,0.0686 -0.0466,0.0115 -0.4576,0.19627 -0.91341,0.41055 -0.45581,0.21428 -0.86538,0.38961 -0.91016,0.38961 -0.0448,0 -0.0814,0.0445 -0.0814,0.0988 0,0.0543 -0.0215,0.0773 -0.0478,0.051 -0.0447,-0.0447 -0.70285,0.25315 -3.21187,1.45318 -0.5588,0.26727 -1.27215,0.59273 -1.58524,0.72325 -0.32096,0.1338 -0.54605,0.27481 -0.51608,0.32331 0.0292,0.0473 0.0118,0.0604 -0.0388,0.0292 -0.0993,-0.0614 -0.70894,0.19555 -0.65839,0.27744 0.0168,0.0273 -0.0515,0.0556 -0.1518,0.0629 -0.1003,0.007 -0.71577,0.2682 -1.36771,0.5797 -1.294356,0.61846 -2.183746,1.03525 -2.709326,1.26967 -0.18627,0.0831 -0.83397,0.38894 -1.43933,0.67968 -0.60537,0.29075 -1.53882,0.72659 -2.07434,0.96855 -0.53551,0.24195 -1.23084,0.55674 -1.54516,0.69952 -0.31433,0.14278 -0.5715,0.28571 -0.5715,0.31762 0,0.0319 -0.0479,0.058 -0.10647,0.058 -0.1555,0 -1.92553,0.80126 -1.92553,0.87165 0,0.0328 -0.0476,0.0609 -0.10584,0.0625 -0.22826,0.006 -1.24498,0.47118 -1.19754,0.54793 0.0277,0.0448 -0.001,0.07 -0.064,0.056 -0.15355,-0.0343 -0.66466,0.1837 -0.66466,0.28347 0,0.0437 -0.0286,0.0626 -0.0635,0.042 -0.12008,-0.0707 -0.45707,0.10789 -0.39453,0.20909 0.039,0.0631 0.0238,0.0756 -0.0424,0.0347 -0.13367,-0.0826 -1.71116,0.62995 -1.64207,0.74173 0.029,0.0469 0.009,0.0576 -0.0449,0.0242 -0.11241,-0.0695 -0.69135,0.18369 -0.69135,0.30232 0,0.044 -0.0341,0.0589 -0.0758,0.0332 -0.0417,-0.0258 -0.0983,0.0119 -0.12587,0.0836 -0.0275,0.0718 -0.0982,0.12123 -0.15704,0.10992 -0.1652,-0.0318 -0.487965,0.0983 -0.487965,0.19672 0,0.0484 0.05913,0.0653 0.131398,0.0376 0.07227,-0.0277 0.111463,-0.0182 0.0871,0.0212 -0.02436,0.0394 0.08796,0.1429 0.249597,0.22995 0.16165,0.0871 0.2939,0.18652 0.2939,0.22103 0,0.0345 0.0571,0.0408 0.127,0.014 0.0699,-0.0268 0.127,-0.0891 0.127,-0.13845 z m -4.619462,-2.03045 c -1.476891,-0.73834 -3.892556,-2.03196 -3.941332,-2.11063 -0.02849,-0.046 -0.08564,-0.0772 -0.127,-0.0695 -0.149333,0.0279 -4.933244,-2.48773 -4.883611,-2.56803 0.028,-0.0453 0.0118,-0.0582 -0.036,-0.0287 -0.06948,0.0429 -4.45042,-2.15307 -4.934586,-2.47353 -0.08432,-0.0558 3.642967,-0.0788 11.091333,-0.0684 l 11.218328,0.0157 -9.948328,0.0434 c -5.471584,0.0239 -9.827683,0.0527 -9.680222,0.064 0.147461,0.0113 0.28397,0.0683 0.303353,0.12648 0.02725,0.0818 0.936612,0.11581 4.007555,0.14982 l 3.972314,0.044 -4.6355,0.0195 c -2.725687,0.0115 -4.6355,0.0514 -4.6355,0.0968 0,0.0425 0.870047,0.53782 1.93344,1.10067 l 1.933438,1.02335 2.194061,0.0176 c 1.206733,0.01 1.841636,0.0301 1.410894,0.0455 -0.710826,0.0254 -0.959095,0.10581 -0.677333,0.21951 0.05821,0.0235 -0.02752,0.0532 -0.1905,0.066 -0.162984,0.0128 0.103716,0.0464 0.592666,0.0748 0.80796,0.0468 0.750074,0.0531 -0.635,0.0684 l -1.523999,0.0169 0.296333,0.18069 c 0.162983,0.0994 1.020233,0.57126 1.905,1.0486 l 1.608666,0.86789 1.989667,0.0515 c 1.094316,0.0283 2.094441,0.0751 2.2225,0.10396 0.398727,0.0898 0.255713,0.20206 -0.257517,0.20206 -0.460818,0 -2.479944,0.23274 -2.539982,0.29277 -0.04317,0.0432 0.86095,0.57084 1.937813,1.13095 0.594121,0.30902 0.926421,0.52515 0.841533,0.54735 -0.07715,0.0202 -0.442771,-0.11454 -0.812481,-0.29936 z m 4.877502,-4.33428 c 0.16649,-0.16649 0.063,-0.21015 -0.57554,-0.24281 -0.36089,-0.0185 -0.13513,-0.0175 0.50168,0.002 0.97149,0.03 1.85826,0.14085 1.55149,0.19393 -0.44792,0.0775 -1.54306,0.1121 -1.47763,0.0467 z m 1.20686,-2.56527 c 0.45645,-0.0153 1.18035,-0.0152 1.60867,1.7e-4 0.42832,0.0153 0.0549,0.0278 -0.8299,0.0277 -0.88477,-8e-5 -1.23521,-0.0126 -0.77877,-0.0279 z m 3.0436,-0.0821 c 0.24365,-0.0369 0.30779,-0.149 0.127,-0.22195 -0.15524,-0.0626 0.56827,-0.0632 1.22767,-9e-4 0.31433,0.0297 0.5715,0.0866 0.5715,0.1264 0,0.0398 -0.26895,0.0724 -0.59766,0.0724 -0.37688,0 -0.57834,-0.0313 -0.54534,-0.0847 0.0288,-0.0466 -0.0239,-0.0847 -0.11701,-0.0847 -0.20088,0 -0.31046,0.13656 -0.15868,0.19775 0.0585,0.0236 -0.0841,0.0402 -0.31698,0.0369 -0.23283,-0.003 -0.31855,-0.0219 -0.1905,-0.0413 z m -25.379921,-8.87169 0.0011,-4.572 0.910336,-0.005 0.910335,-0.005 -0.888441,0.0285 -0.888441,0.0285 -0.02299,4.54798 -0.02299,4.54798 0.0011,-4.572 z m 51.644657,-8.509 c 0,-2.30505 0.0109,-3.24802 0.0242,-2.0955 0.0133,1.15253 0.0133,3.03848 0,4.191 -0.0133,1.15253 -0.0242,0.20955 -0.0242,-2.0955 z m -51.385122,2.18017 c 0.01987,-0.15134 0.07533,-0.93945 0.123235,-1.75134 0.04791,-0.81189 0.09848,-1.48754 0.11238,-1.50144 0.0139,-0.0139 0.794249,-0.051 1.734108,-0.0824 l 1.708835,-0.0571 v 0.46951 c 0,0.41763 -0.02737,0.4913 -0.247674,0.66669 -0.136221,0.10845 -0.229223,0.22704 -0.206671,0.26353 0.02255,0.0365 -0.05059,0.0663 -0.162536,0.0663 -0.111947,0 -0.2725,0.0762 -0.356785,0.16933 -0.08428,0.0931 -0.181768,0.16934 -0.216628,0.16934 -0.07068,0 -0.360054,0.24417 -1.427198,1.20425 -0.817223,0.73524 -1.121722,0.84522 -1.061066,0.38325 z m 7.552058,0.21909 c 0.07941,-0.032 0.108335,-0.47958 0.11585,-1.79248 0.0055,-0.96238 0.03409,-1.85148 0.0635,-1.97579 0.06069,-0.25649 0.30559,-0.53741 1.203052,-1.38 l 0.628431,-0.59001 -0.91388,0.48367 -0.913881,0.48366 0.01244,-1.09415 c 0.01084,-0.95367 0.02941,-1.08764 0.144604,-1.04343 0.07842,0.0301 0.11038,0.0155 0.07859,-0.036 -0.02946,-0.0477 0.04656,-0.13229 0.168937,-0.18805 0.167994,-0.0765 0.237348,-0.0774 0.283095,-0.003 0.03913,0.0633 0.07928,0.0678 0.113356,0.0127 0.02902,-0.047 0.290957,-0.11076 0.582083,-0.14178 0.563871,-0.0601 1.303087,-0.26564 1.375263,-0.38243 0.106443,-0.17223 -0.07403,-0.33243 -0.408773,-0.36286 -0.32806,-0.0298 -0.321681,-0.0331 0.09199,-0.0469 l 0.4445,-0.0148 v 0.38586 c 0,0.21222 0.04387,0.65148 0.09748,0.97613 0.09006,0.54534 0.08523,0.59951 -0.0635,0.71159 -0.15668,0.11808 -0.156392,0.1205 0.01078,0.0907 0.134985,-0.0241 0.16986,0.0127 0.16289,0.17195 -0.0049,0.11142 -0.04065,0.23143 -0.0795,0.26669 -0.03885,0.0353 -0.03981,0.011 -0.0021,-0.054 0.05331,-0.0919 0.01934,-0.10872 -0.153197,-0.0757 -0.121929,0.0233 -0.20317,0.0124 -0.180537,-0.0242 0.02263,-0.0366 0.0092,-0.0863 -0.02979,-0.11043 -0.104637,-0.0647 -0.370147,0.27805 -0.301483,0.38915 0.0384,0.0621 0.0099,0.0764 -0.08211,0.041 -0.07749,-0.0297 -0.140889,-0.0172 -0.140889,0.0279 0,0.0882 0.101276,0.1097 0.402167,0.0853 0.141215,-0.0114 0.1905,0.03 0.1905,0.15996 0,0.14756 -0.05263,0.1754 -0.331612,0.1754 -0.182385,0 -0.344729,-0.0394 -0.360763,-0.0875 -0.01603,-0.0481 -0.154695,0.005 -0.308133,0.11836 -0.18429,0.13597 -0.241447,0.22086 -0.168402,0.25011 0.06082,0.0244 0.02078,0.0473 -0.08898,0.051 -0.137161,0.005 -0.184976,0.0447 -0.152923,0.12821 0.02565,0.0669 0.0012,0.14004 -0.05444,0.16265 -0.05559,0.0226 0.02275,0.0441 0.17409,0.0478 0.263469,0.006 0.275167,0.0211 0.275167,0.34535 v 0.33866 h 0.465374 0.465376 l -0.02365,0.37672 c -0.01301,0.2072 -0.05708,0.40722 -0.09795,0.4445 -0.04088,0.0373 -0.04846,0.0227 -0.01686,-0.0324 0.06583,-0.11486 -0.327183,-0.10109 -0.432589,0.0152 -0.03485,0.0384 -0.01574,0.0425 0.04247,0.009 0.05821,-0.0335 0.105833,-0.0183 0.105833,0.0337 0,0.0521 0.0381,0.0711 0.08467,0.0423 0.204684,-0.1265 0.05907,0.049 -0.184621,0.22256 -0.157676,0.11227 -0.242804,0.14098 -0.205389,0.0693 0.03514,-0.0674 0.0012,-0.0463 -0.07535,0.0468 -0.07659,0.0931 -0.177498,0.15887 -0.224239,0.14607 -0.04674,-0.0128 -0.06332,0.0118 -0.03684,0.0546 0.04701,0.0761 -0.184545,0.22045 -0.310721,0.19374 -0.03493,-0.007 -0.05397,0.0342 -0.04233,0.0924 0.01164,0.0582 -0.0451,0.10061 -0.126089,0.0942 -0.08099,-0.006 -0.127557,0.0203 -0.103479,0.0592 0.02408,0.0389 -0.07219,0.15656 -0.213927,0.26136 -0.141736,0.10479 -0.316951,0.28095 -0.389365,0.39147 -0.128918,0.19675 -0.127566,0.19878 0.06485,0.0973 0.684917,-0.36108 3.187837,-2.40669 3.078506,-2.51602 -0.02431,-0.0243 -0.0018,-0.0953 0.05011,-0.15782 0.06936,-0.0836 0.06917,-0.11362 -7.62e-4,-0.11362 -0.08155,0 -0.121234,0.0892 -0.11296,0.254 0.0012,0.0233 -0.08195,0.10504 -0.184707,0.18168 -0.178828,0.13338 -0.186833,0.13105 -0.186833,-0.0543 0,-0.11792 0.04052,-0.17815 0.103574,-0.15395 0.05696,0.0219 0.145935,-0.0394 0.197712,-0.13616 0.06767,-0.12645 0.06809,-0.1759 0.0015,-0.1759 -0.05095,0 -0.06795,-0.04 -0.03777,-0.0888 0.03772,-0.061 0.09105,-0.0588 0.170621,0.007 0.06367,0.0528 0.152891,0.0731 0.19828,0.0451 0.141336,-0.0873 0.191925,0.10821 0.08015,0.30984 -0.05861,0.10574 -0.09714,0.22484 -0.08561,0.26466 0.03853,0.13312 -0.16503,0.29917 -0.302205,0.24653 -0.100596,-0.0386 -0.1216,-0.0158 -0.08152,0.0887 0.03339,0.087 0.01478,0.133 -0.0488,0.12053 -0.05653,-0.0111 -0.09009,0.037 -0.07456,0.10685 0.01552,0.0699 -2.54e-4,0.0986 -0.03497,0.0638 -0.03476,-0.0348 -0.138456,0.0605 -0.230439,0.21166 -0.354446,0.58258 -1.075115,2.01176 -1.075115,2.13216 0,0.22748 -0.313227,0.30181 -1.243267,0.29502 -0.503654,-0.004 -0.868108,-0.0259 -0.8099,-0.0494 z M 104.68,58.275857 c 0,-0.096 0.10348,-0.127 0.42333,-0.127 0.31985,0 0.42333,0.031 0.42333,0.127 0,0.096 -0.10348,0.127 -0.42333,0.127 -0.31985,0 -0.42333,-0.031 -0.42333,-0.127 z m 4.23345,-3.4e-4 c -7e-5,-0.0471 0.21598,-0.0849 0.48415,-0.0847 l 0.48426,3.4e-4 0.0621,-0.36233 c 0.0341,-0.19928 0.13306,-0.46598 0.21982,-0.59266 0.0867,-0.12669 0.31852,-0.57024 0.51503,-0.98566 0.34928,-0.73835 0.36028,-0.75107 0.48969,-0.56632 0.11734,0.16753 0.11807,0.20525 0.006,0.33199 -0.0693,0.0786 -0.23499,0.35253 -0.36826,0.60865 -0.20592,0.39572 -0.24231,0.56451 -0.24231,1.12381 v 0.65815 l -0.82538,-0.0232 c -0.48078,-0.0135 -0.82542,-0.0587 -0.8255,-0.10819 z m -39.486495,-0.53376 c 0.09507,-1.39131 0.09186,-2.54749 -0.0072,-2.5855 -0.05786,-0.0222 -0.127449,-0.25597 -0.154647,-0.51949 -0.05866,-0.56832 -0.322116,-0.96386 -0.789837,-1.18581 -0.269086,-0.12769 -0.584908,-0.15128 -2.142612,-0.16008 -1.004853,-0.006 -1.727127,-0.0219 -1.605053,-0.0361 0.194126,-0.0225 0.228623,-0.0744 0.275166,-0.41398 0.02927,-0.21353 0.0535,-0.62105 0.05385,-0.90559 8.81e-4,-0.71205 0.14077,-1.51425 0.37812,-2.16835 0.109833,-0.30269 0.350607,-0.96799 0.535053,-1.47846 l 0.335357,-0.92813 0.05447,0.42013 c 0.02996,0.23107 0.1104,1.23565 0.17876,2.23241 0.06836,0.99676 0.138972,1.82697 0.156915,1.84492 0.04425,0.0442 0.295404,-1.10966 0.344529,-1.58287 0.02175,-0.20955 0.0472,-1.0287 0.05654,-1.82034 0.0093,-0.79163 0.03286,-1.33455 0.05226,-1.2065 0.0405,0.26734 0.193358,0.31754 0.193358,0.0635 0,-0.15597 0.09287,-0.21198 0.289498,-0.17458 0.04281,0.008 0.02817,-0.045 -0.03253,-0.11818 -0.09567,-0.11527 -0.08349,-0.12898 0.0915,-0.10294 0.140924,0.021 0.232373,0.11719 0.30292,0.31871 l 0.101055,0.28866 0.0048,-0.28422 c 0.0036,-0.21679 0.03491,-0.27267 0.131779,-0.23549 0.06985,0.0268 0.127033,0.0213 0.127074,-0.0121 4.1e-5,-0.0335 0.609663,-0.0608 1.354717,-0.0608 0.745054,0 1.35462,0.021 1.354592,0.0466 -2.7e-5,0.0256 -0.04767,0.0979 -0.105884,0.16059 -0.05821,0.0627 -0.06355,0.0904 -0.01188,0.0616 0.132199,-0.0737 0.207706,1.34986 0.219258,4.1339 0.0092,2.22361 0.01139,2.25134 0.0792,1.016 0.131048,-2.38729 0.169985,-2.83633 0.245935,-2.83633 0.0418,0 0.05245,-0.0614 0.02366,-0.13639 -0.04707,-0.12266 0.09553,-1.80904 0.195141,-2.30766 0.03771,-0.18875 0.06899,-0.19828 0.538969,-0.16429 0.274416,0.0198 0.479876,0.005 0.456577,-0.0325 -0.02329,-0.0377 0.359944,-0.0686 0.851642,-0.0686 1.004413,0 1.029165,0.0206 0.770007,0.64086 -0.0682,0.16321 -0.08724,0.27404 -0.04233,0.24628 0.04907,-0.0303 0.08824,0.19651 0.09815,0.56837 0.0091,0.34035 0.02077,0.73313 0.02599,0.87283 0.0094,0.25024 0.0019,0.25472 -0.503327,0.30288 -0.492044,0.0469 -0.482926,0.0495 0.225051,0.0635 l 0.737871,0.0146 0.02744,-0.86784 0.02744,-0.86783 0.01786,0.86221 0.01786,0.86221 0.232833,0.0391 c 0.128058,0.0215 -0.300567,0.0376 -0.9525,0.0358 -1.476818,-0.004 -1.733334,0.0464 -2.113304,0.41542 -0.606832,0.58935 -0.622307,0.66539 -0.653092,3.20908 l -0.0276,2.28083 -0.766135,0.93133 c -0.421374,0.51223 -0.882292,1.11007 -1.024261,1.32853 l -0.258125,0.3972 0.02714,-0.3972 z m 2.860535,-2.6409 c 0,-0.81492 0.0127,-1.14829 0.02822,-0.74084 0.01552,0.40746 0.01552,1.07421 0,1.48167 -0.01552,0.40746 -0.02822,0.0741 -0.02822,-0.74083 z m 42.11981,0.61722 c -0.35379,-0.70039 -0.5798,-0.87173 -1.22651,-0.92982 -0.73833,-0.0663 -1.15275,0.0748 -1.48277,0.50481 -0.15115,0.19697 -0.30261,0.39079 -0.33658,0.43071 -0.034,0.0399 -0.1064,-0.0108 -0.16096,-0.11278 -0.0843,-0.15742 -0.0646,-0.2354 0.13067,-0.51709 0.12643,-0.18245 0.24599,-0.33172 0.26569,-0.33172 0.0469,0 -0.0508,0.16936 -0.21989,0.381 -0.13202,0.16525 -0.13103,0.16575 0.0411,0.0208 0.097,-0.0817 0.30045,-0.32935 0.45203,-0.55034 0.22427,-0.32695 0.23397,-0.3566 0.0521,-0.15918 -0.12295,0.13343 -0.23961,0.22653 -0.25925,0.20688 -0.0196,-0.0196 0.0754,-0.15739 0.21123,-0.3061 0.19861,-0.21745 0.31834,-0.27287 0.61156,-0.2831 l 0.36461,-0.0127 -0.381,-0.0592 c -0.33789,-0.0525 -0.30704,-0.0607 0.27264,-0.0719 l 0.65363,-0.0127 0.0237,-1.0795 0.0237,-1.0795 0.27516,-0.0265 0.27517,-0.0265 v 0.98756 0.98756 l 0.381,-0.0303 0.381,-0.0303 v 1.33411 c 0,0.73376 -0.0137,1.33411 -0.0305,1.33411 -0.0168,0 -0.15967,-0.25565 -0.3175,-0.56811 z m -8.97081,0.33529 c 2.86564,-0.021 3.18625,-0.0374 3.34433,-0.17039 0.17447,-0.1468 0.1745,-0.14671 0.0136,0.0434 l -0.16128,0.1905 -3.18305,-0.0201 -3.18304,-0.0201 z m -3.40798,-0.70163 c -0.27086,-0.14262 -0.48041,-0.28599 -0.46566,-0.3186 0.0147,-0.0326 0.31256,-0.44764 0.66181,-0.92229 l 0.635,-0.86301 2.90874,-0.026 2.90873,-0.026 0.47793,-0.52927 0.47794,-0.52928 1.221,9e-5 c 1.02839,8e-5 1.24876,-0.0228 1.397,-0.14504 0.0968,-0.0798 -0.0558,0.10114 -0.33918,0.40216 -0.28335,0.30103 -0.8611,0.94737 -1.28389,1.43632 -0.42279,0.48895 -0.93836,1.07912 -1.14572,1.31148 l -0.37701,0.42249 -3.2921,0.0231 -3.2921,0.0231 -0.49249,-0.25931 z m 2.06357,-3.79119 c -0.0498,-0.0166 -0.0656,-0.0745 -0.0352,-0.12876 0.0355,-0.0634 0.0145,-0.0608 -0.0587,0.007 -0.0627,0.0582 -0.1445,0.10584 -0.18175,0.10584 -0.0373,0 -0.0606,-0.39053 -0.052,-0.86784 l 0.0158,-0.86783 0.0531,0.71967 0.0531,0.71966 0.0158,-0.65616 0.0158,-0.65617 h 0.884 c 0.49801,0 0.90685,-0.037 0.93633,-0.0847 0.0288,-0.0466 0.13041,-0.0847 0.22584,-0.0847 0.13705,0 0.16391,0.04 0.12779,0.1905 -0.0252,0.10477 -0.0695,0.3429 -0.0986,0.52916 l -0.0528,0.33867 0.40689,-0.44453 c 0.22378,-0.24449 0.45178,-0.44452 0.50667,-0.4445 0.0549,2e-5 0.15965,-0.0598 0.23283,-0.13302 0.0997,-0.0997 0.13317,-0.10499 0.13354,-0.0212 2.5e-4,0.0615 0.11456,0.46897 0.254,0.90542 0.13943,0.43645 0.25351,0.83023 0.25351,0.87506 0,0.0751 -3.41015,0.0733 -3.63592,-0.002 z m 5.85471,0.006 c 0.31229,-0.0163 0.84569,-0.0164 1.18534,-2.6e-4 0.33964,0.0161 0.0841,0.0294 -0.5678,0.0295 -0.65193,1.7e-4 -0.92983,-0.013 -0.61754,-0.0293 z m 4.03059,-0.59011 c -0.15591,-0.0238 -0.23593,-0.0932 -0.254,-0.22015 -0.026,-0.18307 -0.0483,-0.18566 -1.78322,-0.20826 -1.47305,-0.0192 -1.75683,-0.0429 -1.75683,-0.14645 0,-0.2079 0.27272,-0.83111 0.49091,-1.12183 0.1714,-0.22838 0.26286,-0.27517 0.53781,-0.27517 0.41403,0 1.22225,-0.26681 1.91122,-0.63094 0.56628,-0.29928 0.55419,-0.30259 0.65583,0.17968 0.018,0.0852 0.0898,0.42163 0.15966,0.74759 0.0699,0.32597 0.15349,0.82872 0.18587,1.11722 0.0541,0.48245 0.0767,0.52729 0.28128,0.55881 0.21864,0.0337 0.21882,0.0343 0.0108,0.0343 -0.11641,0 -0.31409,-0.0156 -0.43928,-0.0348 z m -6.10641,-2.03122 c -0.30231,-0.47889 -0.526,-0.52867 -2.47131,-0.55 -1.58147,-0.0173 -1.59077,-0.0185 -0.55033,-0.068 l 1.05833,-0.0503 -0.99483,-0.0172 c -0.8819,-0.0152 -0.99551,-0.034 -1.00078,-0.16533 -0.005,-0.1267 -0.0165,-0.12363 -0.0787,0.0212 -0.064,0.14894 -0.0735,0.1407 -0.0787,-0.0685 -0.003,-0.13081 0.0296,-0.21584 0.0731,-0.18897 0.0441,0.0273 0.0654,-0.0547 0.0482,-0.1855 -0.017,-0.1289 -0.0335,-0.26519 -0.0367,-0.30286 -0.003,-0.0377 -0.0348,-0.0506 -0.0701,-0.0288 -0.0354,0.0219 -0.0729,-0.40866 -0.0835,-0.95669 l -0.0192,-0.99641 0.91407,-0.0578 c 0.50274,-0.0318 1.51187,-0.0528 2.24251,-0.0465 l 1.32844,0.0113 v 0.4085 c 0,0.22468 -0.0389,0.42148 -0.0865,0.43735 -0.0587,0.0196 -0.0563,0.49705 0.008,1.48671 0.0519,0.80183 0.0781,1.50625 0.0584,1.56539 -0.0199,0.0597 -0.13549,-0.0503 -0.25997,-0.24753 z m 3.39186,-1.01979 c 0.47731,-0.0151 1.25836,-0.0151 1.73567,0 0.47731,0.0151 0.0868,0.0274 -0.86784,0.0274 -0.95461,0 -1.34514,-0.0123 -0.86783,-0.0274 z m -1.77165,-1.16452 c -0.008,-0.44238 -0.0261,-0.90911 -0.0399,-1.03717 -0.13648,-1.26561 -0.21367,-1.50493 -0.55174,-1.71052 l -0.23898,-0.14534 0.21107,-0.11296 c 0.11608,-0.0621 0.21106,-0.16187 0.21106,-0.22167 0,-0.2016 0.1934,-0.53512 0.27947,-0.48193 0.0486,0.0301 0.0592,0.0105 0.0246,-0.0456 -0.0334,-0.0541 0.0215,-0.21393 0.12215,-0.35521 l 0.18292,-0.25689 0.1611,0.18575 c 0.0886,0.10217 0.16111,0.15649 0.16111,0.12073 0,-0.0358 0.0939,-0.004 0.20868,0.0717 0.22341,0.14638 0.46865,0.18138 0.46865,0.0669 0,-0.0384 0.13324,-0.067 0.29608,-0.0635 0.16285,0.003 0.2962,0.0372 0.29634,0.0748 1.7e-4,0.0377 0.0321,0.0488 0.0711,0.0247 0.039,-0.0241 0.2367,0.27885 0.43943,0.67317 0.26334,0.51223 0.34255,0.743 0.27739,0.80816 -0.0652,0.0652 -0.10745,0.0649 -0.14809,-8.5e-4 -0.0788,-0.12748 -0.23876,-0.11606 -0.19323,0.0138 0.0204,0.0582 -0.0907,0.24882 -0.24694,0.42358 -0.15623,0.17476 -0.28406,0.35573 -0.28406,0.40217 0,0.0464 -0.17145,0.0844 -0.381,0.0844 -0.20955,0 -0.381,0.0381 -0.381,0.0847 0,0.0466 -0.0286,0.0802 -0.0635,0.0746 -0.17177,-0.0271 -0.2809,0.0205 -0.26552,0.11585 0.009,0.0582 -0.005,0.16299 -0.0317,0.23284 -0.0613,0.15967 -0.28384,0.94396 -0.40248,1.41816 -0.0495,0.19791 -0.10761,0.35984 -0.1291,0.35984 -0.0215,0 -0.0457,-0.36195 -0.0539,-0.80434 z m 2.72864,-0.0791 c 0.10513,-0.32247 0.18744,-0.43411 0.35266,-0.4783 0.29263,-0.0783 0.41137,0.0138 0.56925,0.44117 0.0949,0.25695 0.19568,0.3795 0.3447,0.41925 0.11581,0.0309 -0.15265,0.0522 -0.59659,0.0473 l -0.80715,-0.009 z m -46.232483,-1.55456 c 0,-0.0432 0.08972,-0.0614 0.199368,-0.0404 0.172203,0.0329 0.205878,-0.002 0.247136,-0.25625 0.02627,-0.1619 0.187647,-0.61996 0.35861,-1.01793 0.349705,-0.81403 0.457227,-0.85516 0.683903,-0.26162 0.07846,0.20545 0.180158,0.37354 0.225995,0.37354 0.0495,0 0.06842,0.20628 0.04659,0.508 -0.02021,0.2794 -0.0057,0.508 0.03216,0.508 0.0379,0 0.0689,0.0313 0.0689,0.0696 0,0.0909 -0.865302,0.0243 -0.967419,-0.0744 -0.04634,-0.0448 -0.12427,-0.0378 -0.1905,0.0172 -0.08601,0.0714 -0.114044,0.0561 -0.12052,-0.0655 -0.0061,-0.11418 -0.02478,-0.0993 -0.06685,0.0531 -0.04096,0.14845 -0.126946,0.21967 -0.287894,0.23846 -0.126216,0.0147 -0.229484,-0.009 -0.229484,-0.0518 z m 3.302707,-0.0998 c -0.10058,-0.0636 -0.10489,-0.10124 -0.02117,-0.18497 0.05782,-0.0578 0.106475,-0.29753 0.108126,-0.53269 0.0044,-0.63406 0.19233,-0.87813 1.135408,-1.47491 0.230309,-0.14575 0.372098,-0.26499 0.315086,-0.26499 -0.139324,0 -1.119507,0.49382 -1.305328,0.65763 -0.136254,0.12012 -0.148109,0.11425 -0.147435,-0.073 5.08e-4,-0.14205 0.203868,-0.4029 0.672548,-0.86269 0.3695,-0.36249 0.694971,-0.73201 0.723267,-0.82117 0.0283,-0.0892 0.124926,-0.18542 0.214731,-0.21392 0.0898,-0.0285 0.154531,-0.094 0.143836,-0.14558 -0.0107,-0.0516 0.0758,-0.14393 0.192219,-0.20525 0.116417,-0.0613 0.173567,-0.11266 0.127,-0.11406 -0.04657,-10e-4 -0.02862,-0.038 0.03988,-0.0813 0.0685,-0.0433 0.098,-0.10532 0.06555,-0.13777 -0.03245,-0.0324 -0.124386,-0.006 -0.204301,0.0589 -0.118147,0.0959 -0.132348,0.0964 -0.076,0.003 0.05609,-0.0931 -0.0013,-0.10415 -0.301248,-0.0577 -0.644469,0.0998 -1.401649,0.38383 -1.92516,0.72219 -0.49939,0.32277 -0.504999,0.32415 -0.40721,0.10023 0.194303,-0.44491 0.663303,-1.19995 0.745366,-1.19995 0.0459,0 0.06235,-0.0341 0.03657,-0.0759 -0.0574,-0.0929 0.160841,-0.53397 0.229988,-0.46482 0.02719,0.0272 0.03113,-0.021 0.0088,-0.10712 -0.02236,-0.0861 0.0203,-0.23274 0.09479,-0.32587 0.132202,-0.16529 0.134217,-0.16428 0.08434,0.0423 -0.04911,0.20343 -0.046,0.20529 0.07996,0.0478 0.165846,-0.20741 1.171131,-0.31566 1.130015,-0.12169 -0.01401,0.0661 0.0484,0.11999 0.144691,0.1249 0.451698,0.023 0.483213,0.0352 0.432635,0.16699 -0.07911,0.20615 0.161831,0.40236 0.362321,0.29506 0.09017,-0.0483 0.183316,-0.13581 0.206981,-0.19455 0.034,-0.0844 0.04443,-0.0846 0.04971,-9.7e-4 0.0037,0.0582 0.04359,0.10583 0.08869,0.10583 0.04511,0 0.06008,-0.0571 0.03328,-0.127 -0.0268,-0.0699 -0.0097,-0.127 0.03794,-0.127 0.04767,0 0.10119,0.0436 0.118939,0.0968 0.02404,0.0721 0.07981,0.0714 0.218722,-0.003 0.154524,-0.0827 0.186453,-0.0775 0.186453,0.0302 0,0.0715 0.05642,0.12998 0.125387,0.12998 0.06896,0 0.143679,0.0857 0.166036,0.1905 0.02236,0.10478 0.05676,0.2667 0.07646,0.35983 0.02848,0.13468 0.089,-1.24381 0.08469,-1.92895 -5.08e-4,-0.083 0.02646,-0.12113 0.05996,-0.0847 0.0335,0.0365 0.02807,0.88544 -0.01206,1.88662 -0.04014,1.00119 -0.09709,2.53471 -0.126569,3.40784 l -0.0536,1.5875 h -1.79422 c -1.31812,0 -1.824476,-0.0281 -1.908241,-0.10584 -0.09122,-0.0847 -0.102071,-0.0847 -0.05427,0 0.07045,0.12479 -0.02568,0.13584 -0.203535,0.0234 z m 4.825292,-0.18371 c 0,-0.12936 0.1143,-0.7464 0.254,-1.37122 0.1397,-0.62482 0.254,-1.18343 0.254,-1.24136 0,-0.17789 -0.221159,0.056 -0.425247,0.4497 -0.106369,0.20519 -0.162074,0.26548 -0.132163,0.14303 0.02844,-0.11641 0.07542,-0.37359 0.104399,-0.5715 0.02898,-0.19791 0.08562,-0.35983 0.125852,-0.35983 0.04024,0 0.07316,-0.10478 0.07317,-0.23283 l 6e-6,-0.23284 1.486177,-0.0233 c 1.443039,-0.0226 1.703597,-0.0662 1.94112,-0.32473 0.0475,-0.0517 0.162558,-0.12071 0.255691,-0.15336 0.132362,-0.0464 0.11236,0.002 -0.09161,0.221 -0.42152,0.45289 -1.078825,1.5738 -1.430445,2.43936 -0.17971,0.44238 -0.363322,0.82865 -0.408026,0.85837 -0.0447,0.0297 -0.0551,0.0964 -0.0231,0.14817 0.032,0.0518 0.01148,0.0941 -0.0456,0.0941 -0.05708,0 -0.07972,0.0241 -0.05031,0.0535 0.02941,0.0294 0.01431,0.12664 -0.03355,0.21606 -0.07841,0.14651 -0.174389,0.16062 -0.970688,0.14272 l -0.883672,-0.0199 z m 30.252444,-0.22055 c 0.73633,-0.0141 1.91743,-0.0141 2.62467,7e-5 0.70723,0.0141 0.10478,0.0257 -1.33879,0.0257 -1.44356,-3e-5 -2.02221,-0.0116 -1.28588,-0.0257 z m -0.61912,-0.89884 c 0,-0.02 0.10901,-0.2594 0.24224,-0.53194 0.13323,-0.27253 0.30957,-0.67572 0.39185,-0.89598 0.0845,-0.22615 0.18744,-0.37708 0.23651,-0.34675 0.0493,0.0305 0.0613,0.0123 0.0277,-0.0421 -0.0326,-0.0527 0.035,-0.26454 0.15012,-0.47076 0.11514,-0.20623 0.18352,-0.40371 0.15197,-0.43885 -0.0315,-0.0351 -0.01,-0.0365 0.0485,-0.003 0.0582,0.0335 0.10583,0.11581 0.10583,0.18291 0,0.18069 0.14105,0.14808 0.29625,-0.0685 0.13618,-0.19001 0.13637,-0.18987 0.0771,0.055 -0.0336,0.13906 -0.0265,0.22527 0.0165,0.19888 0.0667,-0.0409 0.1326,0.80386 0.15363,1.96865 l 0.007,0.381 -0.9525,0.0239 c -0.52388,0.0132 -0.9525,0.008 -0.9525,-0.0125 z m 2.22168,-1.79685 c 0.0412,-1.66388 0.10699,-2.13716 0.27398,-1.97017 0.0237,0.0237 0.1,0.59269 0.16947,1.26435 0.0695,0.67167 0.15506,1.37361 0.19018,1.55988 0.0573,0.304 0.0696,0.265 0.11971,-0.381 0.0307,-0.39582 0.0837,-1.06656 0.11779,-1.49053 l 0.0619,-0.77086 0.94146,-0.0543 c 0.5178,-0.0298 1.1266,-0.0544 1.35289,-0.0546 l 0.41143,-4.3e-4 -0.0353,0.3023 c -0.0346,0.2966 -0.0327,0.29882 0.10378,0.11792 0.13896,-0.18422 0.13924,-0.18408 0.35677,0.18427 0.11974,0.20275 0.20111,0.3955 0.18082,0.42833 -0.0203,0.0328 -0.25485,0.0624 -0.52125,0.0656 -0.73547,0.009 -0.9385,0.0371 -0.88572,0.12246 0.0266,0.0431 -0.0167,0.053 -0.0971,0.0221 -0.0799,-0.0307 -0.12789,-0.0276 -0.10662,0.007 0.0213,0.0344 -0.0584,0.17686 -0.17702,0.31653 -0.20662,0.24329 -0.20976,0.24418 -0.0746,0.0211 0.0776,-0.12806 0.10462,-0.23284 0.0601,-0.23284 -0.0765,0 -0.21014,0.28186 -0.22074,0.46567 -0.003,0.0466 -0.17492,0.49338 -0.38274,0.99291 l -0.37785,0.90824 -0.75327,0.002 -0.75328,0.002 0.0452,-1.82772 z m 1.84232,-1.38961 c 0,-0.14111 -0.0564,-0.16933 -0.33866,-0.16933 -0.28222,0 -0.33867,0.0282 -0.33867,0.16933 0,0.14111 0.0564,0.16934 0.33867,0.16934 0.28222,0 0.33866,-0.0282 0.33866,-0.16934 z m -6.41982,0.86784 -0.16601,-0.23284 1.11275,0.027 1.11275,0.027 -0.23755,0.20582 c -0.21087,0.18269 -0.31724,0.20582 -0.94674,0.20582 -0.67696,0 -0.71672,-0.0106 -0.8752,-0.23283 z m -0.48348,-0.67734 c -0.12911,-0.17462 -0.35065,-0.44132 -0.49233,-0.59266 -0.14167,-0.15135 -0.22153,-0.2762 -0.17747,-0.27745 0.044,-10e-4 0.90654,-0.002 1.91663,-0.002 1.77653,-3e-5 1.83833,-0.006 1.89156,-0.17344 0.0303,-0.0954 0.0724,-0.15609 0.0935,-0.13493 0.0535,0.0535 -0.32675,0.82096 -0.40682,0.82096 -0.0358,0 -0.0408,0.0634 -0.0111,0.14088 0.0392,0.1023 0.0234,0.12191 -0.0581,0.0716 -0.0712,-0.044 -0.0918,-0.0364 -0.0564,0.0208 0.0306,0.0496 0.0312,0.15389 0.001,0.23185 -0.0322,0.084 -0.0764,0.10616 -0.10839,0.0544 -0.0321,-0.052 -0.49851,-0.0909 -1.15238,-0.0962 -1.46415,-0.0118 -1.35038,-0.0236 -1.22539,0.12704 0.058,0.0699 0.0862,0.127 0.0628,0.127 -0.0235,0 -0.14828,-0.14288 -0.27738,-0.3175 z m 1.55529,-1.35455 -1.74967,-0.0247 -0.0569,-0.33697 c -0.0534,-0.31589 -0.075,-0.33697 -0.34582,-0.33697 -0.15889,0 -0.28889,-0.0381 -0.28889,-0.0847 0,-0.10352 4.79501,-0.11864 4.85887,-0.0153 0.0236,0.0381 -0.079,0.0545 -0.22784,0.0363 -0.20001,-0.0244 -0.23859,-0.0108 -0.14774,0.0521 0.0676,0.0468 0.16288,0.0624 0.21167,0.0347 0.0488,-0.0277 -0.003,0.0498 -0.1141,0.17231 -0.11154,0.12249 -0.23274,0.20421 -0.26932,0.1816 -0.0366,-0.0226 -0.0941,0.004 -0.12777,0.058 -0.0383,0.0619 -0.0246,0.0765 0.0365,0.0387 0.0538,-0.0332 0.0978,-0.0201 0.0978,0.0292 0,0.0493 -0.0404,0.0897 -0.0897,0.0897 -0.0493,0 -0.0661,0.0381 -0.0373,0.0847 0.0288,0.0466 0.0406,0.076 0.0262,0.0653 -0.0144,-0.0106 -0.81351,-0.0305 -1.77584,-0.044 z m -25.479067,-0.33744 c -0.491337,-0.54271 -0.8452,-1.04343 -0.794906,-1.12481 0.02965,-0.048 0.02251,-0.0818 -0.01588,-0.0751 -0.204935,0.0356 -0.383312,-0.0261 -0.512772,-0.17726 -0.07974,-0.0931 -0.184145,-0.16875 -0.232004,-0.16804 -0.04786,6.8e-4 -0.02987,0.0382 0.03998,0.0834 0.07631,0.0493 0.08675,0.0826 0.02616,0.0834 -0.267945,0.003 -0.103643,-0.3464 0.397026,-0.84537 0.02336,-0.0233 0.187903,-0.22331 0.365646,-0.4445 0.18452,-0.22963 0.393385,-0.40217 0.486833,-0.40217 0.152964,0 0.207026,-0.0961 0.166636,-0.29633 -0.0094,-0.0466 0.01116,-0.0564 0.04568,-0.0219 0.03452,0.0345 0.121209,0.0155 0.192641,-0.0423 0.103596,-0.0838 0.11701,-0.0837 0.06629,7.7e-4 -0.03497,0.0582 -0.02548,0.10583 0.02108,0.10583 0.04657,0 0.108598,-0.0387 0.137847,-0.0861 0.06498,-0.10513 0.211304,-0.0268 0.209517,0.11221 -8.64e-4,0.0675 -0.02538,0.0628 -0.07408,-0.014 -0.05492,-0.0867 -0.08813,-0.0901 -0.13526,-0.0138 -0.03436,0.0556 -0.02007,0.14348 0.03175,0.1953 0.05182,0.0518 0.09364,0.13423 0.09293,0.18313 -6.77e-4,0.0489 -0.03991,0.0318 -0.0871,-0.0381 -0.0675,-0.0999 -0.08077,-0.0819 -0.0622,0.0847 0.02715,0.24351 -0.18535,1.26966 -0.263138,1.27069 -0.02856,3.4e-4 -0.05817,0.2133 -0.0658,0.47315 -0.0076,0.25986 -0.03773,0.56754 -0.06689,0.68374 -0.136854,0.54527 0.143287,-0.008 0.668315,-1.32031 0.317454,-0.79337 0.606843,-1.42416 0.643088,-1.40176 0.03625,0.0224 0.0444,-0.0415 0.01812,-0.14196 -0.03559,-0.13611 -0.01945,-0.16519 0.06331,-0.11404 0.07555,0.0467 0.09075,0.0358 0.04752,-0.0342 -0.03496,-0.0566 -0.01718,-0.21486 0.03952,-0.35175 0.08031,-0.19389 0.156949,-0.24889 0.346821,-0.24889 0.137847,0 0.244292,-0.046 0.245025,-0.10583 9.99e-4,-0.0812 0.0176,-0.0801 0.07126,0.004 0.03848,0.0607 0.104571,0.10224 0.14687,0.0924 0.167956,-0.0391 0.361092,0.11145 0.310863,0.24234 -0.03715,0.0968 -0.01488,0.12057 0.07914,0.0845 0.08307,-0.0319 0.1951,0.0367 0.30691,0.18796 l 0.176082,0.23817 -0.17949,-0.0469 c -0.144288,-0.0377 -0.168388,-0.018 -0.122878,0.1006 0.03114,0.0811 0.05661,0.20382 0.05661,0.2726 0,0.0732 0.04067,0.0999 0.098,0.0645 0.06716,-0.0415 0.08297,-0.003 0.05023,0.12212 -0.02628,0.10048 -0.01323,0.16134 0.029,0.13524 0.04222,-0.0261 0.07677,0.0452 0.07677,0.15841 0,0.11322 0.09525,0.49765 0.211667,0.85428 0.116416,0.35663 0.211666,0.73585 0.211666,0.84271 0,0.1742 -0.380978,0.64355 -0.451115,0.55576 -0.01565,-0.0196 -0.169805,-0.62616 -0.342572,-1.34795 -0.425783,-1.77883 -0.550726,-2.20133 -0.65099,-2.20133 -0.05431,0 -0.05096,0.0641 0.0092,0.17659 0.05198,0.0971 0.07546,0.19563 0.05217,0.21891 -0.02328,0.0233 -0.08512,-0.0376 -0.137415,-0.13533 -0.135557,-0.25329 -0.366945,-0.10492 -0.509363,0.32662 -0.08282,0.25094 -0.140555,0.32051 -0.214844,0.25885 -0.145153,-0.12046 -0.482229,0.79245 -0.346907,0.93954 0.06941,0.0754 0.0685,0.088 -0.0034,0.0477 -0.136547,-0.0765 -0.282627,0.38666 -0.28712,0.91028 -0.004,0.46294 -0.235427,1.24924 -0.381331,1.29546 -0.04879,0.0155 -0.18411,-0.0773 -0.300716,-0.20608 z m 28.922077,0.17469 c 1.02093,-0.0614 2.14012,-0.065 2.10385,-0.007 -0.0217,0.0349 -0.59923,0.0565 -1.28334,0.0478 -0.68411,-0.009 -1.05334,-0.0271 -0.82051,-0.0411 z m -17.035636,-3.90073 c 0.31626,-0.0163 0.81156,-0.0162 1.10067,2.5e-4 0.2891,0.0165 0.0303,0.0298 -0.57503,0.0297 -0.60536,-1.7e-4 -0.8419,-0.0136 -0.52564,-0.03 z"
         id="path298" /><path
         style="fill:#2d3130;stroke-width:0.0846667"
         d="m 87.154004,85.239617 c -0.66934,-0.17132 -3.206053,-1.42148 -9.101668,-4.48554 -1.6764,-0.87126 -3.771092,-1.95904 -4.654872,-2.41729 -0.88378,-0.45824 -3.20788,-1.67676 -5.164667,-2.70782 -3.080084,-1.62293 -3.62333,-1.9383 -4.045878,-2.34877 -0.531768,-0.51657 -0.927048,-1.23739 -1.078423,-1.96656 -0.06201,-0.29872 -0.08173,-3.63233 -0.06287,-10.63117 0.02746,-10.19281 0.02753,-10.1963 0.219892,-11.21199 0.40644,-2.14605 1.017017,-4.26055 1.714991,-5.9392 1.409425,-3.38972 3.018632,-5.78925 5.612866,-8.36949 2.184348,-2.17256 4.065083,-3.52151 6.781628,-4.86413 2.921719,-1.44401 5.162322,-2.14368 8.551331,-2.6703 1.96327,-0.30508 5.1602,-0.24931 7.59515,0.13248 5.12649,0.80383 10.093396,3.27441 14.155716,7.04115 2.20141,2.04123 4.36684,4.84761 5.67529,7.35512 1.33831,2.56473 2.08316,4.71121 2.72914,7.86471 0.0334,0.16298 0.0739,5.03001 0.09,10.81561 l 0.0293,10.51927 -0.20515,0.58993 c -0.2513,0.72261 -0.68875,1.33456 -1.24689,1.74427 -0.44163,0.32419 -21.012076,10.65205 -22.260856,11.17657 -1.12074,0.47074 -1.55157,0.54293 -3.21734,0.5391 -1.17566,-0.003 -1.61281,-0.037 -2.11666,-0.16595 z m 3.68817,-1.38015 c 0.23568,-0.0647 0.8062,-0.2832 1.26781,-0.48565 1.52072,-0.66693 21.750356,-10.79976 22.025426,-11.03232 0.55215,-0.46681 0.54156,-0.33069 0.516,-6.63722 l -0.0231,-5.69486 -25.018996,-0.003 -25.018997,-0.003 v 4.73964 c 0,4.65498 0.0031,4.74383 0.174565,4.97339 0.09601,0.12856 0.279776,0.3123 0.408368,0.40831 l 0.233804,0.17456 19.064963,0.0423 c 11.120017,0.0247 18.976753,0.0733 18.853293,0.11674 -0.38701,0.13604 -1.95152,0.85831 -5.841996,2.69698 -2.11878,1.00135 -5.05248,2.38311 -6.51933,3.07057 -1.46685,0.68747 -4.12409,1.94979 -5.90497,2.80516 -1.780885,0.85537 -3.281829,1.55521 -3.335433,1.55521 -0.186444,0 -2.915497,-1.50365 -2.849264,-1.56989 0.06004,-0.06 2.079164,-0.29277 2.539982,-0.29277 0.51323,0 0.656244,-0.11222 0.257517,-0.20206 -0.128059,-0.0289 -1.128184,-0.0756 -2.2225,-0.10396 l -1.989667,-0.0515 -1.608666,-0.86789 c -0.884767,-0.47734 -1.735194,-0.94487 -1.889839,-1.03894 l -0.281172,-0.17105 2.990505,-0.0519 c 1.644778,-0.0286 4.590705,-0.0689 6.546505,-0.0896 1.955802,-0.0207 3.670302,-0.0655 3.810002,-0.0995 l 0.254,-0.0619 -0.254,-0.0851 c -0.1591,-0.0533 -2.926979,-0.0972 -7.408335,-0.11737 l -7.154333,-0.0322 -1.926166,-1.0185 c -1.059392,-0.56018 -1.926167,-1.0533 -1.926167,-1.09582 0,-0.0462 3.993876,-0.0767 9.927166,-0.0757 9.417555,0.001 13.356165,-0.0764 13.356165,-0.26409 0,-0.0329 -0.20002,-0.0845 -0.4445,-0.11472 -0.4513,-0.0557 -22.978876,-0.16322 -24.066497,-0.11481 l -0.592667,0.0264 1.778,0.91899 c 0.9779,0.50544 2.67335,1.38673 3.767666,1.95842 6.250029,3.26513 8.181098,4.26414 9.821333,5.08092 1.001183,0.49856 2.429933,1.24431 3.174995,1.65723 1.43868,0.7973 2.23629,1.137 2.9483,1.25565 0.59316,0.0988 2.0338,0.0402 2.56021,-0.10422 z m -5.91373,-1.52158 c -0.17631,-0.10673 -0.291775,-0.22285 -0.256585,-0.25804 0.03519,-0.0352 -0.0015,-0.0388 -0.0816,-0.008 -0.08014,0.0307 -0.145586,0.0163 -0.145586,-0.0322 0,-0.0984 0.322761,-0.2285 0.487961,-0.19673 0.0588,0.0113 0.1295,-0.0382 0.15704,-0.10991 0.0275,-0.0718 0.0842,-0.10941 0.12587,-0.0836 0.0417,0.0258 0.0758,0.0108 0.0758,-0.0332 0,-0.11862 0.57894,-0.37178 0.69135,-0.30231 0.054,0.0334 0.0739,0.0227 0.0449,-0.0242 -0.0691,-0.11179 1.5084,-0.82434 1.64207,-0.74173 0.0662,0.0409 0.0814,0.0285 0.0424,-0.0347 -0.0625,-0.1012 0.27445,-0.2798 0.39453,-0.2091 0.0349,0.0206 0.0635,0.002 0.0635,-0.042 0,-0.0998 0.51111,-0.31774 0.66466,-0.28346 0.0629,0.014 0.0917,-0.0112 0.064,-0.056 -0.0474,-0.0768 0.96928,-0.54195 1.19754,-0.54793 0.0582,-0.002 0.10584,-0.0296 0.10584,-0.0625 0,-0.0704 1.77003,-0.87165 1.92553,-0.87165 0.0586,0 0.10647,-0.0261 0.10647,-0.058 0,-0.0319 0.25717,-0.17484 0.5715,-0.31762 0.31432,-0.14279 1.00965,-0.45757 1.54516,-0.69953 0.53552,-0.24195 1.46897,-0.6778 2.07434,-0.96854 0.60536,-0.29075 1.25306,-0.5966 1.43933,-0.67968 0.52558,-0.23442 1.41497,-0.65122 2.709326,-1.26968 0.65194,-0.31149 1.26741,-0.57236 1.36771,-0.5797 0.10031,-0.007 0.16862,-0.0356 0.1518,-0.0629 -0.0506,-0.0819 0.55912,-0.33879 0.65839,-0.27744 0.0506,0.0312 0.068,0.0181 0.0388,-0.0292 -0.03,-0.0485 0.19512,-0.1895 0.51608,-0.32331 0.31309,-0.13051 1.02644,-0.45597 1.58524,-0.72324 2.50902,-1.20003 3.16722,-1.49783 3.21187,-1.45318 0.0263,0.0263 0.0478,0.003 0.0478,-0.051 0,-0.0543 0.0366,-0.0988 0.0814,-0.0988 0.0448,0 0.45435,-0.17533 0.91016,-0.38961 0.45581,-0.21428 0.86684,-0.39903 0.91341,-0.41055 0.0466,-0.0115 0.14182,-0.0424 0.21167,-0.0686 0.72619,-0.27255 0.78738,-0.25024 0.79801,0.29102 0.005,0.27736 -0.0156,0.31478 -0.15245,0.27133 -0.0873,-0.0277 -0.13746,-0.0159 -0.11142,0.0262 0.026,0.0421 0.0213,0.11395 -0.0106,0.15958 -0.10265,0.14703 -0.75947,0.39581 -0.86798,0.32874 -0.0685,-0.0423 -0.0836,-0.0302 -0.0434,0.0348 0.0402,0.065 -0.0806,0.16166 -0.34675,0.27752 -0.22462,0.0978 -0.57985,0.25514 -0.7894,0.34971 -0.20955,0.0946 -0.42863,0.17242 -0.48684,0.173 -0.0582,6e-4 -0.10583,0.0284 -0.10583,0.0618 0,0.0659 -0.88787,0.44593 -0.98194,0.42027 -0.0316,-0.009 -0.0808,0.0194 -0.10926,0.0623 -0.0285,0.0429 -0.41375,0.24248 -0.85613,0.44359 -0.44239,0.20111 -1.27418,0.58839 -1.84842,0.86062 -0.57425,0.27224 -1.05776,0.49497 -1.07446,0.49497 -0.028,0 -0.52877,0.23379 -2.64811,1.23626 -0.43303,0.20482 -0.799486,0.37241 -0.814356,0.37241 -0.0149,0 -0.49877,0.224 -1.07534,0.49777 -1.88711,0.89606 -3.92484,1.81303 -4.03281,1.81476 -0.0582,9.3e-4 -0.10584,0.0266 -0.10584,0.0572 0,0.0305 -0.20002,0.14499 -0.4445,0.25442 -0.24447,0.10943 -0.80645,0.367 -1.24883,0.57238 -0.44238,0.20538 -1.35678,0.61764 -2.032,0.91615 -0.67522,0.2985 -1.37147,0.6209 -1.54723,0.71643 -0.17577,0.0955 -0.36627,0.14687 -0.42334,0.11407 -0.0571,-0.0328 -0.0746,-0.0275 -0.0389,0.0118 0.0821,0.0904 -0.4325,0.31266 -0.55241,0.23856 -0.049,-0.0302 -0.0659,-0.0177 -0.0378,0.0279 0.0651,0.10535 -0.68198,0.47387 -0.80568,0.39742 -0.0591,-0.0365 -0.0676,-0.0171 -0.0236,0.0541 0.0512,0.0828 0.0221,0.0989 -0.11404,0.0633 -0.10048,-0.0263 -0.16407,-0.0177 -0.14131,0.0192 0.0395,0.0639 -0.2795,0.22314 -0.54914,0.27421 -0.0699,0.0132 -0.14605,0.0476 -0.16934,0.0764 -0.0918,0.11365 -0.91389,0.48715 -0.96335,0.4377 -0.0289,-0.029 -0.0526,-0.008 -0.0526,0.0461 0,0.1504 -0.1781,0.11823 -0.53222,-0.0961 z m 18.621546,-23.3008 c 0.97418,-0.63831 0.53539,-2.1591 -0.62262,-2.15796 -0.88409,8.8e-4 -1.42956,1.0443 -0.93385,1.78633 0.36994,0.55377 1.03584,0.71276 1.55647,0.37163 z m -0.88506,-0.73587 c -0.2467,-0.2467 0.0632,-0.72698 0.40014,-0.62006 0.2141,0.068 0.31816,0.42287 0.17468,0.59576 -0.12582,0.15161 -0.43446,0.16465 -0.57482,0.0243 z m 5.03373,0.73587 c 0.53033,-0.34749 0.71531,-1.23185 0.35379,-1.69145 -0.35561,-0.45208 -0.99591,-0.58491 -1.50457,-0.31211 -0.57248,0.30702 -0.76729,1.09066 -0.4057,1.63193 0.36994,0.55377 1.03585,0.71276 1.55648,0.37163 z m -0.90503,-0.80928 c -0.0729,-0.13614 -0.0637,-0.22077 0.0413,-0.381 0.0742,-0.1133 0.18852,-0.20599 0.25397,-0.20599 0.16475,0 0.3851,0.236 0.3851,0.41245 0,0.35245 -0.51452,0.48444 -0.68037,0.17454 z m 6.76487,0.79037 c 0.12274,-0.0909 0.31226,-0.29511 0.42116,-0.45381 0.16639,-0.2425 0.19242,-0.36815 0.16307,-0.78731 -0.0318,-0.45344 -0.0658,-0.52754 -0.37475,-0.81573 -0.46686,-0.43548 -0.90638,-0.50783 -1.44906,-0.23852 -0.56988,0.2828 -0.80591,0.66759 -0.76004,1.23902 0.042,0.52359 0.23482,0.82383 0.70674,1.10062 0.39567,0.23207 0.94512,0.21326 1.29288,-0.0443 z m -0.98757,-0.80163 c -0.0559,-0.0559 -0.1016,-0.20066 -0.1016,-0.32173 0,-0.44637 0.48181,-0.58657 0.72745,-0.21167 0.12848,0.19608 0.12848,0.22726 0,0.42333 -0.14861,0.22682 -0.45519,0.28073 -0.62585,0.11007 z m -46.661086,-0.38748 c 1.067144,-0.96008 1.356515,-1.20425 1.427198,-1.20425 0.03486,0 0.132343,-0.0762 0.216628,-0.16934 0.08429,-0.0931 0.244838,-0.16933 0.356785,-0.16933 0.111948,0 0.185089,-0.0299 0.162536,-0.0663 -0.02255,-0.0365 0.07045,-0.15508 0.206671,-0.26353 0.229291,-0.18254 0.247674,-0.23906 0.247674,-0.76148 0,-0.96206 0.04505,-0.94064 -1.978284,-0.94064 -1.240637,0 -1.753389,0.0293 -1.854683,0.10583 -0.212211,0.16043 -0.225822,2.75022 -0.01869,3.556 0.194767,0.75768 0.303945,0.74999 1.234163,-0.0869 z m 8.380391,0.57077 c 0.09007,-0.0482 0.163768,-0.14453 0.163768,-0.21406 0,-0.13408 0.787498,-1.67514 1.147117,-2.24482 0.117489,-0.18611 0.249914,-0.31595 0.294279,-0.28853 0.04635,0.0286 0.05681,-0.0123 0.0246,-0.0962 -0.04222,-0.11002 -0.02261,-0.13325 0.07945,-0.0941 0.14137,0.0542 0.381803,-0.15558 0.286954,-0.25043 -0.02992,-0.0299 -0.0544,-0.01 -0.0544,0.0444 0,0.0543 -0.04149,0.0988 -0.09219,0.0988 -0.05071,0 0.008,-0.1191 0.130503,-0.26466 0.222011,-0.26385 0.245735,-0.47669 0.04803,-0.43087 -0.05729,0.0133 -0.15391,-0.0172 -0.214712,-0.0676 -0.07664,-0.0636 -0.127383,-0.0645 -0.165419,-0.003 -0.03018,0.0488 -0.01572,0.0888 0.03214,0.0888 0.04785,0 0.0754,0.0476 0.06121,0.10584 -0.01419,0.0582 -0.0098,0.0773 0.0097,0.0423 0.01953,-0.0349 0.0751,-0.0635 0.123491,-0.0635 0.0557,0 0.05171,0.0437 -0.01089,0.11912 -0.05437,0.0655 -0.18604,0.10956 -0.292589,0.0979 -0.113428,-0.0125 -0.193725,0.0244 -0.193725,0.0888 0,0.0606 0.03175,0.0905 0.07056,0.0665 0.0388,-0.024 0.07055,-0.0242 0.07055,-5.9e-4 0,0.0856 -1.109814,0.83268 -1.161008,0.78148 -0.0289,-0.0289 -0.0081,-0.0525 0.04623,-0.0525 0.05433,0 0.09878,-0.0404 0.09878,-0.0897 0,-0.0493 -0.04399,-0.0625 -0.09775,-0.0292 -0.06105,0.0377 -0.07474,0.0232 -0.03648,-0.0387 0.0337,-0.0545 0.09595,-0.0777 0.138332,-0.0515 0.17193,0.10625 0.39157,-0.12356 0.402768,-0.42142 l 0.01131,-0.30079 h -0.463089 -0.463089 v -0.33866 c 0,-0.32427 -0.0117,-0.33895 -0.275166,-0.34535 -0.151342,-0.004 -0.229682,-0.0252 -0.17409,-0.0478 0.05559,-0.0226 0.08009,-0.0958 0.05444,-0.16265 -0.03205,-0.0835 0.01576,-0.12362 0.152924,-0.12821 0.109757,-0.004 0.149799,-0.0266 0.08898,-0.051 -0.07305,-0.0292 -0.01589,-0.11414 0.168402,-0.25011 0.153438,-0.1132 0.292097,-0.16647 0.308132,-0.11836 0.01603,0.0481 0.178379,0.0875 0.360764,0.0875 0.278986,0 0.331611,-0.0278 0.331611,-0.1754 0,-0.13001 -0.04928,-0.1714 -0.1905,-0.15996 -0.30089,0.0244 -0.402166,0.003 -0.402166,-0.0853 0,-0.0451 0.0634,-0.0577 0.140888,-0.0279 0.09204,0.0353 0.12051,0.0211 0.08211,-0.041 -0.06867,-0.1111 0.196846,-0.45382 0.301483,-0.38915 0.03902,0.0241 0.05243,0.0738 0.02979,0.11043 -0.02263,0.0366 0.05861,0.0475 0.180536,0.0242 0.172539,-0.033 0.206503,-0.0162 0.153197,0.0757 -0.03767,0.065 -0.03671,0.0892 0.0021,0.054 0.03885,-0.0353 0.07462,-0.15527 0.0795,-0.26669 0.007,-0.15921 -0.02791,-0.19603 -0.162891,-0.17195 -0.167169,0.0298 -0.167457,0.0274 -0.01078,-0.0907 0.148728,-0.11208 0.153562,-0.16625 0.0635,-0.71159 -0.05362,-0.32465 -0.09748,-0.76391 -0.09748,-0.97613 v -0.38586 h -1.25416 -1.25416 l -0.214522,0.23284 c -0.508399,0.55179 -0.494513,0.47276 -0.494232,2.81284 1.69e-4,1.18873 0.02519,2.81855 0.05566,3.62182 l 0.0554,1.4605 h 0.88124 c 0.484682,0 0.954935,-0.0394 1.045006,-0.0876 z m 9.263921,-0.13796 c -3.015128,-2.01753 -4.952751,-5.83168 -4.745001,-9.34038 0.166594,-2.81359 1.099081,-4.97636 3.006322,-6.97273 1.109761,-1.16162 2.614785,-2.10815 4.188427,-2.63416 1.44919,-0.48442 3.28471,-0.71121 4.53028,-0.55977 2.07101,0.25181 3.85175,0.89973 5.38392,1.95891 4.217166,2.91533 5.714816,8.63679 3.46678,13.24407 -0.92946,1.90489 -2.08194,3.27472 -3.68253,4.37706 -0.19985,0.13764 -0.14357,0.14391 1.32871,0.14816 l 1.5374,0.004 0.36914,-0.35983 c 0.29896,-0.29142 0.84887,-0.95025 1.445036,-1.73124 0.0551,-0.0723 -0.0931,-0.18726 -0.515646,-0.40006 -0.32618,-0.16426 -0.6123,-0.32978 -0.63581,-0.36783 -0.0579,-0.0936 2.009416,-2.98839 2.579746,-3.61241 l 0.45607,-0.49899 -0.004,-1.86999 c -0.003,-1.60267 -0.0298,-1.98809 -0.18783,-2.6962 -0.58402,-2.61781 -1.63665,-4.55358 -3.490916,-6.4198 -2.0461,-2.05929 -4.59196,-3.28401 -7.50605,-3.61088 -1.08416,-0.12162 -3.13125,-0.0512 -4.0642,0.13972 -4.75237,0.97272 -8.465357,4.46383 -9.715403,9.13485 -1.058354,3.95472 0.125176,8.59127 2.963058,11.60796 l 0.644114,0.6847 h 1.492525 1.492525 l -0.337154,-0.2256 z m 21.972504,0.0139 c 0,-0.096 -0.10348,-0.127 -0.42333,-0.127 -0.31985,0 -0.42333,0.031 -0.42333,0.127 0,0.096 0.10348,0.127 0.42333,0.127 0.31985,0 0.42333,-0.031 0.42333,-0.127 z m 5.03767,-0.52915 c 0,-0.75966 0.16761,-1.15116 0.9399,-2.19546 0.52184,-0.70563 0.81745,-0.84016 1.67656,-0.76299 0.64023,0.0575 0.87126,0.22913 1.21566,0.90307 0.15187,0.29718 0.29475,0.55895 0.3175,0.58171 0.0681,0.068 0.0441,-4.25411 -0.0241,-4.36143 -0.035,-0.055 -0.32565,-0.11138 -0.65487,-0.127 l -0.59194,-0.0281 -0.0237,1.0795 -0.0237,1.0795 h -0.59285 c -1.00885,0 -1.31754,0.23101 -2.11813,1.58511 -0.51042,0.86332 -0.79569,1.57737 -0.8804,2.20373 l -0.0601,0.4445 h -0.41539 c -0.31279,0 -0.41539,0.0314 -0.41539,0.127 0,0.1042 0.14818,0.127 0.8255,0.12702 l 0.8255,2e-5 z m -40.864822,-0.06348 c 0.121473,-0.18627 0.564653,-0.75777 0.984845,-1.27 l 0.763983,-0.93133 0.0276,-2.28083 c 0.03079,-2.54369 0.04626,-2.61973 0.653092,-3.20908 0.382552,-0.37153 0.651629,-0.42322 2.080454,-0.39962 1.336104,0.0221 1.256172,0.0835 1.260827,-0.96847 0.0029,-0.66584 0.13708,-2.06191 0.218488,-2.27406 0.04906,-0.12785 -0.34919,-0.13894 -4.991041,-0.13894 h -5.04436 l -0.127834,0.4445 c -0.580676,2.0191 -0.888157,3.75118 -0.950659,5.35516 l -0.04949,1.27 1.81713,0.0103 c 2.042559,0.0116 2.258108,0.0606 2.676399,0.60863 l 0.228054,0.29878 0.02694,2.08114 c 0.01965,1.51825 0.05098,2.03533 0.115822,1.9118 0.04889,-0.0931 0.188273,-0.32173 0.309747,-0.508 z m 39.727132,-2.4769 c 0.44531,-0.50037 1.07284,-1.21457 1.39451,-1.5871 0.32168,-0.37253 0.90031,-1.01827 1.28586,-1.43497 0.38554,-0.4167 0.70099,-0.78817 0.70099,-0.8255 0,-0.12296 -0.65292,-0.0723 -0.762,0.0591 -0.085,0.10237 -0.34722,0.127 -1.35215,0.127 h -1.24674 l -0.48455,0.508 -0.48455,0.508 -2.97851,0.004 -2.9785,0.004 -0.39633,0.56789 c -0.21797,0.31234 -0.62755,0.88657 -0.91016,1.27605 -0.28262,0.38949 -0.51322,0.73239 -0.51245,0.762 7.7e-4,0.0296 0.37225,0.25255 0.8255,0.4954 l 0.8241,0.44157 3.13267,0.003 3.13267,0.003 0.80964,-0.90977 z m -20.621636,-1.05911 c 4.74095,-2.6252 6.20191,-3.43269 7.3025,-4.03621 0.61701,-0.33834 1.12183,-0.65931 1.12183,-0.71327 0,-0.1203 -0.11724,-0.19442 -1.397,-0.88318 -0.5588,-0.30074 -1.18745,-0.64219 -1.397,-0.75878 -0.20955,-0.1166 -1.20552,-0.66285 -2.21327,-1.2139 -1.00775,-0.55104 -2.64605,-1.45516 -3.64067,-2.00914 -1.79748,-1.00115 -2.65055,-1.45451 -2.73691,-1.45451 -0.0618,0 -0.0576,12.57469 0.004,12.63652 0.0272,0.0272 0.17005,-0.019 0.3175,-0.10271 0.14744,-0.0837 1.33488,-0.74284 2.63875,-1.46482 z m 18.911546,-2.56346 c 0.0277,-0.027 -0.36091,-1.34389 -0.60481,-2.0497 l -0.0951,-0.27516 h -1.63399 -1.634 v 1.15005 c 0,0.88271 0.0246,1.14173 0.10584,1.11424 0.0582,-0.0197 0.20505,0.006 0.32633,0.0564 0.19945,0.0835 3.45035,0.0873 3.53572,0.004 z m 6.83406,-0.99136 c -0.0721,-0.56051 -0.4641,-2.52122 -0.52311,-2.6167 -0.0243,-0.0393 -0.84416,-0.0715 -1.82193,-0.0715 h -1.77776 l -0.15755,0.35983 c -0.12107,0.27652 -0.45091,1.62381 -0.54132,2.21109 -0.006,0.0403 0.88407,0.0784 1.97839,0.0847 1.97857,0.0114 1.98981,0.0125 2.01605,0.1968 0.026,0.18261 0.15861,0.23457 0.68302,0.2676 0.1948,0.0123 0.19954,-0.002 0.14421,-0.43181 z m -6.4781,-2.96472 c -0.064,-0.98966 -0.0665,-1.46713 -0.008,-1.48671 0.0476,-0.0159 0.0865,-0.21617 0.0865,-0.44513 0,-0.38758 0.0146,-0.41628 0.21167,-0.41628 0.11641,0 0.21166,-0.0172 0.21166,-0.0383 0,-0.0954 -0.21694,-0.51827 -0.29461,-0.57419 -0.0475,-0.0342 -1.24335,-0.0628 -2.65742,-0.0635 l -2.57104,-10e-4 0.0461,0.1905 c 0.0254,0.10478 0.16092,0.62666 0.30126,1.15974 0.14034,0.53308 0.27839,1.21888 0.30678,1.524 0.0971,1.04347 -0.10056,0.93569 1.71672,0.93623 1.91108,6e-4 2.14461,0.0514 2.44853,0.53284 0.12448,0.19718 0.24007,0.30724 0.25997,0.24753 0.0197,-0.0591 -0.007,-0.76356 -0.0584,-1.56539 z m 1.60166,-0.42195 c 0.11864,-0.4742 0.34123,-1.2585 0.40248,-1.41817 0.0268,-0.0699 0.041,-0.17462 0.0317,-0.23283 -0.0154,-0.0954 0.0937,-0.14298 0.26552,-0.11586 0.0349,0.006 0.0635,-0.0281 0.0635,-0.0746 0,-0.0466 0.17145,-0.0847 0.381,-0.0847 0.20955,0 0.381,-0.038 0.381,-0.0844 0,-0.0464 0.12783,-0.2274 0.28406,-0.40216 0.15623,-0.17476 0.26736,-0.36537 0.24694,-0.42358 -0.0433,-0.12342 0.11262,-0.14422 0.18638,-0.0249 0.0275,0.0445 0.0965,0.0633 0.15317,0.0417 0.0623,-0.0237 0.1741,0.14188 0.2823,0.41802 l 0.17918,0.45727 -0.31678,0.0507 -0.31678,0.0506 -0.18349,0.74153 c -0.10092,0.40783 -0.20242,0.80482 -0.22556,0.88218 -0.0378,0.12625 0.071,0.14011 1.06192,0.13525 0.99716,-0.005 1.10399,-0.0199 1.10399,-0.15508 0,-0.54519 -1.31609,-3.44437 -2.34957,-5.17581 -2.87679,-4.81963 -7.56742,-8.86748 -12.738916,-10.99327 -2.93466,-1.20631 -5.5001,-1.75427 -8.57584,-1.83173 -2.70384,-0.0681 -4.28357,0.11477 -7.075311,0.81901 -4.097774,1.03369 -8.593437,3.64502 -11.33333,6.58301 l -0.770263,0.82596 1.29212,0.024 1.29212,0.024 0.241045,-0.29916 c 0.201836,-0.2505 0.294993,-0.29916 0.572693,-0.29916 0.449444,0 0.658728,-0.23942 1.61718,-1.85001 0.429311,-0.72141 0.852903,-1.33587 0.952058,-1.38105 0.119552,-0.0545 0.495781,-0.04 1.137539,0.0438 0.799051,0.10433 0.996186,0.15981 1.182528,0.33278 0.122993,0.11417 0.402733,0.27419 0.621644,0.3556 0.488176,0.18156 0.447007,0.13428 1.512408,1.73686 0.479844,0.72178 0.884145,1.32788 0.898445,1.34688 0.0143,0.019 0.429722,-0.16415 0.923159,-0.40701 1.951705,-0.96056 3.600365,-1.35966 5.880485,-1.42352 3.14524,-0.0881 4.99455,0.31793 7.60189,1.66897 1.7283,0.89555 3.39498,2.31667 4.493146,3.83118 l 0.53719,0.74083 h 0.69837 c 0.56442,0 0.73867,-0.0317 0.90846,-0.16525 0.12399,-0.0975 0.41379,-0.6187 0.7072,-1.27184 0.27342,-0.60863 0.60162,-1.2067 0.72934,-1.32906 0.28411,-0.2722 1.0154,-0.44152 2.27088,-0.5258 1.21234,-0.0814 1.4139,0.0238 1.18743,0.61944 l -0.0826,0.21718 h -1.21724 c -1.12466,0 -1.2389,0.0146 -1.50192,0.19184 -0.16031,0.10803 -0.3299,0.32073 -0.38818,0.48683 -0.43576,1.2421 -1.29952,3.79306 -1.29952,3.83792 0,0.0305 0.86678,0.0549 1.92617,0.0542 l 1.92616,-0.001 0.3252,-0.79872 c 0.63491,-1.55938 0.92977,-1.8295 2.02719,-1.85712 l 0.57662,-0.0145 0.24922,0.40502 0.24921,0.40502 h -0.88492 c -0.78104,0 -0.90377,0.0202 -1.04548,0.17234 -0.14209,0.15252 -0.6927,1.42398 -0.6927,1.59957 0,0.0373 0.17303,0.13383 0.38451,0.2146 0.47816,0.18261 0.64542,0.43109 0.73602,1.09345 0.10909,0.79753 0.11877,0.92611 0.13465,1.78837 0.008,0.44238 0.0324,0.80433 0.0539,0.80433 0.0215,0 0.0796,-0.16192 0.1291,-0.35983 z m -43.169455,-2.26483 c 0.04207,-0.15245 0.06077,-0.16732 0.06685,-0.0531 0.0065,0.12166 0.03451,0.1369 0.12052,0.0655 0.06623,-0.055 0.144162,-0.062 0.1905,-0.0172 0.102117,0.0987 0.967419,0.16531 0.967419,0.0744 0,-0.0383 -0.02858,-0.0696 -0.0635,-0.0696 -0.03493,3e-5 -0.06432,-0.23809 -0.06533,-0.52917 -0.001,-0.29107 -0.01928,-0.85602 -0.04061,-1.25545 -0.0317,-0.59353 -0.0089,-0.79242 0.12457,-1.08848 0.135257,-0.29994 0.173982,-0.33522 0.225159,-0.2051 0.034,0.0864 0.06573,0.3667 0.07052,0.62282 l 0.0087,0.46566 0.224077,-0.66782 c 0.215631,-0.64265 0.242842,-0.67995 0.721947,-0.98961 0.521656,-0.33716 1.282915,-0.62006 1.927119,-0.71616 0.478695,-0.0714 0.437559,-0.0255 -0.59122,0.66036 -1.154667,0.76974 -1.131291,0.72173 -1.153337,2.36888 -0.01298,0.97001 0.01058,1.39409 0.0799,1.4382 0.152433,0.097 0.241618,0.0763 0.175561,-0.0407 -0.0478,-0.0847 -0.03695,-0.0847 0.05427,0 0.08376,0.0778 0.590121,0.10583 1.908241,0.10583 h 1.79422 l 0.0536,-1.5875 c 0.02948,-0.87312 0.08602,-2.40665 0.125649,-3.40783 0.03963,-1.00118 0.05549,-1.84891 0.03525,-1.88383 -0.02024,-0.0349 -0.82981,-0.0635 -1.799047,-0.0635 h -1.762248 l -0.751588,1.01322 c -0.413374,0.55728 -0.947715,1.35978 -1.187427,1.78334 -0.43371,0.76634 -1.822004,3.67129 -1.933917,4.04664 -0.0527,0.17675 -0.03446,0.19405 0.178514,0.16933 0.168944,-0.0196 0.254022,-0.0884 0.29562,-0.2392 z m 9.464981,0.0155 c 0.04786,-0.0894 0.06296,-0.18665 0.03355,-0.21606 -0.02941,-0.0294 -0.0068,-0.0535 0.05031,-0.0535 0.05708,0 0.07759,-0.0424 0.0456,-0.0941 -0.032,-0.0518 -0.0216,-0.11845 0.0231,-0.14817 0.0447,-0.0297 0.228316,-0.41599 0.408026,-0.85837 0.344548,-0.84815 1.006704,-1.98381 1.409278,-2.41703 0.516383,-0.55569 0.304573,-0.63097 -1.775405,-0.63097 h -1.687648 l -0.222918,0.33685 c -0.206148,0.31151 -0.222912,0.40546 -0.222851,1.24884 l 6.7e-5,0.91198 0.175576,-0.3547 c 0.192727,-0.38935 0.416957,-0.63119 0.416957,-0.4497 0,0.0579 -0.1143,0.61654 -0.254,1.24136 -0.1397,0.62482 -0.254,1.24186 -0.254,1.37122 v 0.23518 l 0.883672,0.0199 c 0.796299,0.0179 0.892276,0.004 0.970688,-0.14272 z m 1.549767,-6.15944 c 0.07945,-0.22976 0.146129,-0.61209 0.148167,-0.84961 0.0045,-0.52363 0.150573,-0.98676 0.28712,-0.91028 0.07195,0.0403 0.07285,0.0278 0.0034,-0.0477 -0.135322,-0.14709 0.201755,-1.06 0.346907,-0.93954 0.07429,0.0617 0.132023,-0.008 0.214844,-0.25885 0.142418,-0.43153 0.373806,-0.5799 0.509363,-0.32661 0.0523,0.0977 0.114132,0.15861 0.137415,0.13532 0.02328,-0.0233 -1.69e-4,-0.12179 -0.05217,-0.21891 -0.06019,-0.11247 -0.06354,-0.17659 -0.0092,-0.17659 0.100264,0 0.225207,0.4225 0.65099,2.20134 0.172767,0.72178 0.326924,1.32835 0.342572,1.34794 0.07014,0.0878 0.451115,-0.38156 0.451115,-0.55575 0,-0.10686 -0.09525,-0.48609 -0.211666,-0.84272 -0.116417,-0.35663 -0.211667,-0.74106 -0.211667,-0.85428 0,-0.11322 -0.03455,-0.1845 -0.07677,-0.15841 -0.04223,0.0261 -0.05527,-0.0348 -0.029,-0.13524 0.03274,-0.12519 0.01693,-0.16363 -0.05023,-0.12212 -0.05733,0.0354 -0.098,0.009 -0.098,-0.0645 0,-0.0688 -0.02548,-0.19147 -0.05661,-0.27261 -0.04551,-0.1186 -0.02141,-0.13833 0.122878,-0.10059 l 0.17949,0.0469 -0.176082,-0.23816 c -0.11181,-0.15123 -0.223839,-0.21984 -0.30691,-0.18797 -0.09402,0.0361 -0.116286,0.0123 -0.07914,-0.0845 0.05223,-0.13612 -0.137433,-0.27521 -0.333372,-0.24448 -0.05468,0.009 -0.12201,-0.0556 -0.149623,-0.14259 -0.11394,-0.359 -0.42258,-0.52647 -1.112928,-0.60388 -0.367422,-0.0412 -0.724351,-0.0434 -0.793175,-0.005 -0.06883,0.0385 -0.518636,0.7116 -0.99958,1.49575 -1.014555,1.65417 -1.053595,1.82353 -0.472624,2.05032 0.240326,0.0938 0.466679,0.28513 0.713531,0.60307 0.527797,0.6798 0.777637,0.93765 0.877779,0.90592 0.04879,-0.0155 0.153711,-0.21608 0.233164,-0.44584 z"
         id="path296" /></g></g></svg>
